<svg version="1.1" id="Layer_1" xmlns="http://www.w3.org/2000/svg" xmlns:xlink="http://www.w3.org/1999/xlink" x="0px" y="0px"
	 width="100%" viewBox="0 0 696 362" enable-background="new 0 0 696 362" xml:space="preserve">
<path fill="#FFFFFF" opacity="1.000000" stroke="none" 
	d="
M445.000000,363.000000 
	C426.312439,363.000000 407.624878,363.000000 388.400024,362.546082 
	C387.847931,360.595337 387.690521,359.083588 387.845551,357.604584 
	C388.279144,353.467712 387.736786,350.173645 382.296875,350.783325 
	C382.296875,339.369080 382.296875,328.327118 382.296875,317.360687 
	C385.252350,316.605042 387.210144,316.586212 387.356293,320.211151 
	C387.392548,321.110565 389.127136,322.537567 390.217926,322.681000 
	C392.940887,323.039062 395.742493,322.799011 398.636230,322.799011 
	C398.636230,316.586761 398.636230,311.049316 398.636230,305.363403 
	C383.369812,305.363403 368.482452,305.363403 353.314087,305.363403 
	C353.314087,311.190216 353.314087,316.726196 353.314087,322.203308 
	C362.779205,323.866547 363.763580,323.460724 366.014984,316.136292 
	C367.575134,317.353149 369.860809,318.290955 369.885803,319.285553 
	C370.147614,329.707245 370.047455,340.137970 370.047455,350.655151 
	C367.870605,350.961670 366.281982,351.185333 364.000000,351.506653 
	C364.000000,355.440521 364.000000,359.220276 364.000000,363.000000 
	C351.979095,363.000000 339.958221,363.000000 327.695038,362.721985 
	C336.569672,360.223083 341.716797,353.993622 341.884827,344.682922 
	C342.010986,337.692841 342.044189,330.695587 341.880554,323.707123 
	C341.653503,314.011200 336.155853,306.747040 327.396637,305.557617 
	C321.857574,304.805450 316.036926,304.748077 310.514496,305.555176 
	C300.720581,306.986542 295.933716,313.235626 295.902313,323.172638 
	C295.878601,330.664398 295.726318,338.162292 295.988953,345.644897 
	C296.084412,348.364136 296.422424,351.738159 298.043671,353.598938 
	C301.171722,357.189209 305.291443,359.915497 309.000000,363.000000 
	C295.979095,363.000000 282.958221,363.000000 269.694885,362.721619 
	C283.481049,359.136414 285.916382,348.651184 283.065643,331.898376 
	C279.459045,331.898376 275.802856,331.898376 272.146698,331.898376 
	C268.555695,331.898376 264.964722,331.898376 261.428467,331.898376 
	C261.428467,336.069031 261.428467,339.448914 261.428467,343.281647 
	C265.139160,343.281647 268.413177,343.281647 271.631622,343.281647 
	C272.197388,349.071625 270.748413,350.915527 265.750061,351.062012 
	C262.587738,351.154663 259.420105,351.047638 256.255341,351.080017 
	C251.905991,351.124512 249.812775,348.956268 249.813553,344.656464 
	C249.814865,337.493317 249.586960,330.318726 249.953705,323.174530 
	C250.054504,321.211243 251.717010,317.869965 253.021301,317.684723 
	C258.061035,316.968933 263.386383,316.558960 268.311127,317.528900 
	C270.458069,317.951721 271.894196,321.983612 273.980194,324.821411 
	C276.569366,324.821411 280.006653,324.821411 283.391663,324.821411 
	C284.986084,314.782166 277.592010,305.648529 267.589661,305.153687 
	C263.434875,304.948120 259.256165,304.945496 255.099380,305.117157 
	C245.249786,305.523865 238.051712,313.079498 237.997147,322.922089 
	C237.964828,328.752380 238.424866,334.622650 237.896881,340.404938 
	C236.909576,351.217621 241.139328,358.652985 251.000000,363.000000 
	C231.645767,363.000000 212.291550,363.000000 192.455597,362.537689 
	C191.973877,358.616760 191.973877,355.158142 191.973877,351.648682 
	C189.801437,351.215576 188.095032,350.875397 186.410095,350.539520 
	C186.410095,339.276123 186.410095,328.353180 186.410095,317.292786 
	C188.288544,317.026489 189.881943,316.800629 191.695587,316.543549 
	C191.695587,312.762970 191.695587,309.204437 191.695587,305.512329 
	C184.016113,305.512329 176.651550,305.512329 169.427414,305.512329 
	C169.427414,309.506744 169.427414,313.070740 169.427414,316.533569 
	C171.440399,316.884796 173.016846,317.159851 174.595703,317.435333 
	C174.595703,328.706573 174.595703,339.629089 174.595703,350.588257 
	C172.598038,350.989441 170.885864,351.333282 169.000000,351.712036 
	C169.000000,355.686462 169.000000,359.343231 169.000000,363.000000 
	C113.100159,363.000000 57.200317,363.000000 1.000000,363.000000 
	C1.000000,337.646576 1.000000,312.291931 1.468466,286.470245 
	C7.860091,286.003174 13.783251,286.003174 20.473890,286.003174 
	C20.473890,273.442108 20.473890,261.656708 20.473890,249.871307 
	C20.976406,249.761108 21.478922,249.650894 21.981438,249.540680 
	C22.724945,251.005447 23.688349,252.400833 24.176012,253.946320 
	C27.177977,263.460266 29.986572,273.036285 33.098278,282.513245 
	C33.549839,283.888519 35.237644,285.781403 36.428741,285.837616 
	C43.208687,286.157501 50.011501,285.992737 57.713203,285.992737 
	C53.636028,273.506958 49.793774,261.740570 45.952972,249.978653 
	C54.134556,247.429962 55.999676,244.879135 56.005608,236.544037 
	C56.017113,220.380722 56.022343,204.217377 56.003578,188.054077 
	C55.989601,176.015091 51.137722,171.180664 38.988182,171.117752 
	C26.325592,171.052170 13.662739,171.037140 1.000000,171.000000 
	C1.000000,114.375221 1.000000,57.750446 1.000000,1.000000 
	C141.354202,1.000000 281.708435,1.000000 422.278595,1.301735 
	C421.350647,1.781034 420.203766,1.941026 419.063385,2.138693 
	C370.642029,10.531896 322.216919,18.903511 273.804382,27.347494 
	C265.053345,28.873829 265.074615,29.012424 267.150330,37.707279 
	C267.222168,38.008175 267.464966,38.268250 267.992249,39.170406 
	C269.966187,38.673130 272.226288,38.359951 274.268433,37.518154 
	C276.362854,36.654816 278.115540,34.774651 280.246002,34.226585 
	C284.410675,33.155205 288.738037,32.723728 292.991364,31.988468 
	C334.051453,24.890530 375.129639,17.893475 416.143829,10.539394 
	C421.129517,9.645435 424.705048,10.531200 428.381287,13.694923 
	C435.187317,19.552069 442.272705,25.083094 449.165649,30.841059 
	C459.646545,39.596188 471.724701,46.548695 472.044983,63.331387 
	C472.275635,75.418686 475.879913,87.441597 477.998322,99.601959 
	C474.649292,100.519127 471.835968,102.564323 469.267303,98.701065 
	C465.292603,92.723167 459.288055,90.292450 452.427399,91.350204 
	C445.497925,92.418556 440.649567,96.756165 438.796387,103.662003 
	C437.986908,106.678513 436.110931,107.500710 433.527039,107.948929 
	C400.980682,113.594688 368.435913,119.249603 335.894562,124.924004 
	C333.063232,125.417709 331.216034,124.881798 329.185638,122.264885 
	C325.093445,116.990555 319.391754,114.652115 312.465179,115.847450 
	C305.665314,117.020912 301.137390,120.932579 299.467346,127.379776 
	C298.158508,132.432739 295.301971,132.474701 291.487061,131.707611 
	C289.268311,121.245773 289.268311,121.245773 295.141022,119.012039 
	C294.975372,116.891396 294.800537,114.653206 294.585327,111.897690 
	C276.822601,115.017967 259.597992,118.043709 242.226151,121.095314 
	C242.786560,123.811569 243.182816,125.732231 243.759537,128.527588 
	C256.436920,126.426735 268.921478,124.357826 281.695740,122.240913 
	C282.235046,125.550186 282.704681,128.481216 283.191345,131.409424 
	C284.837006,141.311493 284.839233,141.310364 294.632263,139.972382 
	C296.250793,139.751236 297.870605,139.539917 298.085724,139.511246 
	C302.830872,143.486511 306.743134,146.763992 310.884583,150.233490 
	C290.661499,150.233490 270.437714,150.233490 249.870224,150.233490 
	C250.004974,152.326462 250.106613,153.905060 250.237045,155.930862 
	C252.271805,155.930862 253.904800,155.930908 255.537796,155.930862 
	C329.359802,155.928818 403.181793,155.927078 477.003784,155.921875 
	C478.169434,155.921799 479.590240,156.284683 480.435577,155.752792 
	C481.472229,155.100571 482.612061,153.682022 482.609497,152.597366 
	C482.607391,151.698776 481.159210,150.429428 480.083984,150.009033 
	C478.926666,149.556549 477.457489,149.899002 476.124390,149.898911 
	C425.632141,149.896011 375.139893,149.893616 324.647644,149.891159 
	C323.143372,149.891083 321.639069,149.891144 320.134796,149.891144 
	C326.529114,146.701019 331.029022,142.562866 332.493713,135.460526 
	C332.724426,134.341888 335.030212,133.137772 336.535675,132.870941 
	C369.066162,127.104668 401.635590,121.556541 434.145966,115.680984 
	C437.930573,114.996994 439.631775,115.989304 441.858429,118.872894 
	C449.213989,128.398529 465.474701,127.336990 469.740112,116.436226 
	C472.337067,109.799416 476.012512,107.667381 482.181213,107.331131 
	C483.631775,107.252052 485.058777,106.741531 486.598877,106.407303 
	C486.681213,105.578194 486.891968,104.914192 486.786713,104.304771 
	C483.396149,84.675880 480.024536,65.043274 476.464600,45.444912 
	C476.179230,43.873779 474.819916,42.239594 473.525391,41.151279 
	C464.231750,33.338139 454.770294,25.724642 445.474152,17.914400 
	C438.891998,12.384335 432.485107,6.645591 426.000000,0.999997 
	C516.261841,1.000000 606.523621,1.000000 697.000000,1.000000 
	C697.000000,94.687454 697.000000,188.375061 696.714111,282.266541 
	C689.931702,246.510513 683.404480,210.556076 676.998901,174.580002 
	C676.506470,171.814606 675.292236,171.009079 672.688477,171.065186 
	C667.025574,171.187180 661.353882,171.235245 655.694519,171.048477 
	C652.582458,170.945770 651.468445,172.012238 650.917664,175.179749 
	C646.905151,198.255554 642.630981,221.285782 638.463501,244.334747 
	C635.988098,258.025757 633.556396,271.724640 631.000610,286.003235 
	C637.767090,286.003235 644.072083,285.828827 650.360413,286.077698 
	C653.447754,286.199890 654.504944,284.844086 654.836731,282.155487 
	C655.239746,278.889648 655.741028,275.635956 656.211975,272.290405 
	C661.611755,272.290405 666.660522,272.290405 671.784241,272.290405 
	C672.259399,275.619446 672.797180,278.567566 673.072388,281.540009 
	C673.360107,284.647705 674.436096,286.249603 678.007751,286.085052 
	C684.326416,285.793976 690.668030,286.001282 697.000000,286.000000 
	C697.000000,311.623413 697.000000,337.246826 697.000000,363.000000 
	C636.312500,363.000000 575.624878,363.000000 514.423279,362.539703 
	C513.909241,358.623901 513.909241,355.168396 513.909241,351.636719 
	C511.692108,351.203064 509.985596,350.869324 508.312134,350.541992 
	C508.312134,339.280640 508.312134,328.358948 508.312134,317.235107 
	C510.185120,317.235107 511.754456,317.235107 513.475342,317.235107 
	C513.772461,319.082764 514.027954,320.671509 514.310974,322.431335 
	C517.880554,322.431335 521.261902,322.431335 524.656250,322.431335 
	C524.656250,316.498505 524.656250,310.963287 524.656250,305.461243 
	C509.316345,305.461243 494.426056,305.461243 479.490662,305.461243 
	C479.490662,311.395844 479.490662,316.936859 479.490662,322.419617 
	C489.834625,323.573547 490.170807,323.428589 491.880463,315.999512 
	C493.610840,317.437134 495.963135,318.466797 495.993195,319.560272 
	C496.275452,329.835114 496.160828,340.120850 496.160828,350.417297 
	C494.147980,350.951752 492.621124,351.357147 491.000000,351.787567 
	C491.000000,355.691620 491.000000,359.345795 491.000000,363.000000 
	C483.645752,363.000000 476.291504,363.000000 468.455505,362.537659 
	C467.973785,358.502991 467.973785,354.930664 467.973785,351.533051 
	C465.563782,351.114319 463.989563,350.840820 462.376984,350.560638 
	C462.376984,339.320312 462.376984,328.418488 462.376984,317.447083 
	C464.342133,317.041504 466.051300,316.688751 467.558136,316.377777 
	C467.558136,312.481110 467.558136,308.934906 467.558136,305.432556 
	C459.871002,305.432556 452.634155,305.432556 445.260315,305.432556 
	C445.260315,309.335114 445.260315,312.884766 445.260315,316.531647 
	C447.185150,316.813721 448.776855,317.046997 450.568024,317.309479 
	C450.568024,328.550964 450.568024,339.586029 450.568024,350.719666 
	C448.651703,350.981567 447.053406,351.200012 445.000000,351.480682 
	C445.000000,355.448639 445.000000,359.224304 445.000000,363.000000 
M430.891632,214.500000 
	C430.891357,205.670685 430.903442,196.841354 430.887848,188.012054 
	C430.865479,175.377045 426.664276,171.117950 414.204742,171.103958 
	C402.043579,171.090302 389.882385,171.100037 377.721222,171.099518 
	C375.954681,171.099442 374.188141,171.099503 372.288208,171.099503 
	C372.288208,209.703598 372.288208,247.598221 372.288208,285.565613 
	C379.945801,285.565613 387.301331,285.565613 395.103699,285.565613 
	C395.103699,275.529541 395.103699,265.927399 395.103699,255.163696 
	C402.814850,255.163696 410.113098,255.600327 417.337219,255.054977 
	C426.715118,254.347061 430.616455,249.894806 430.833679,240.487686 
	C431.025909,232.162445 430.885254,223.829529 430.891632,214.500000 
M187.546768,286.003601 
	C191.839874,286.003601 196.132980,286.003601 200.195648,286.003601 
	C200.479813,285.343323 200.615860,285.186493 200.592926,285.057983 
	C194.006027,248.141388 187.442017,211.220535 180.667664,174.338303 
	C180.433578,173.063873 178.148331,171.349258 176.725311,171.254944 
	C171.256134,170.892426 165.741684,171.274612 160.258133,171.044662 
	C156.835007,170.901108 155.424042,171.806915 154.772385,175.532074 
	C149.710114,204.470123 144.335037,233.353378 139.080704,262.257935 
	C137.673523,269.999115 136.349106,277.755341 134.936127,285.792175 
	C142.927826,285.792175 150.196548,285.792175 157.797791,285.792175 
	C158.643341,281.163147 159.462952,276.676178 160.277588,272.216431 
	C165.632675,272.216431 170.546127,272.216431 175.595383,272.216431 
	C175.945251,274.279572 176.222916,276.061646 176.552246,277.834106 
	C178.070587,286.005798 178.075745,286.004852 187.546768,286.003601 
M587.314697,271.901672 
	C588.768616,271.993378 590.222595,272.085083 591.790588,272.183960 
	C592.608215,276.882324 593.368835,281.252899 594.135071,285.655762 
	C601.903625,285.655762 609.293335,285.655762 616.617310,285.655762 
	C616.737915,284.981750 616.895386,284.638153 616.840393,284.332794 
	C610.221252,247.586029 603.620117,210.835831 596.804749,174.125412 
	C596.579346,172.911209 594.219360,171.331650 592.772034,171.241348 
	C587.299988,170.899872 581.781921,171.323944 576.304871,171.025269 
	C572.610901,170.823822 571.535217,172.358047 570.938171,175.757828 
	C566.805115,199.294189 562.442993,222.790237 558.189026,246.305481 
	C555.832275,259.333282 553.542358,272.373199 551.118652,285.990143 
	C558.321045,285.990143 565.117798,286.148407 571.891479,285.825165 
	C572.947449,285.774811 574.436768,283.665894 574.790710,282.271576 
	C575.629395,278.967499 575.906372,275.520844 576.444641,271.901398 
	C580.069702,271.901398 583.217529,271.901398 587.314697,271.901672 
M100.785179,264.874420 
	C99.839256,264.216736 98.088364,263.579834 98.070786,262.898224 
	C97.875107,255.310104 97.947418,247.715088 97.947418,239.744461 
	C103.508896,239.744461 108.326164,239.900864 113.120712,239.639786 
	C114.395760,239.570374 116.628006,238.276154 116.673141,237.448914 
	C116.986359,231.708344 116.838387,225.942612 116.838387,219.681107 
	C110.150818,219.681107 104.228333,219.681107 98.364304,219.681107 
	C98.364304,210.437729 98.364304,201.735367 98.364304,192.390778 
	C106.535118,192.390778 114.244263,192.390778 122.659897,192.390778 
	C121.427483,185.621887 120.501823,179.570572 119.085403,173.636414 
	C118.825775,172.548691 116.588356,171.250381 115.235130,171.217056 
	C106.412155,170.999802 97.581245,171.104477 88.752937,171.104065 
	C83.991745,171.103836 79.230545,171.104019 74.383369,171.104019 
	C74.383369,209.742920 74.383369,247.630890 74.383369,285.762329 
	C88.958679,285.762329 103.214615,285.762329 117.894913,285.762329 
	C119.168533,278.903992 120.421249,272.158234 121.772766,264.880402 
	C114.670212,264.880402 108.202217,264.880402 100.785179,264.874420 
M501.504272,286.005920 
	C511.162445,286.004974 520.823792,286.125244 530.475403,285.872406 
	C531.923462,285.834473 534.279297,284.284302 534.586182,283.033844 
	C535.999817,277.274994 536.836182,271.374420 537.994751,264.878845 
	C530.830994,264.878845 524.095032,264.878845 516.593933,264.878845 
	C524.881897,233.387253 532.975220,202.634979 541.177612,171.468491 
	C524.248779,171.468491 507.901398,171.468491 491.363617,171.468491 
	C490.116211,178.567856 488.927063,185.335632 487.604187,192.864502 
	C495.910278,192.864502 503.308624,192.864502 511.286530,192.864502 
	C502.658081,224.214401 494.233490,254.823624 485.651184,286.005951 
	C491.220215,286.005951 495.863373,286.005951 501.504272,286.005920 
M238.006271,242.499847 
	C238.005997,227.517380 238.113998,212.533585 237.928894,197.553406 
	C237.882965,193.836441 239.008820,192.535400 242.746628,192.682480 
	C249.007782,192.928879 255.285690,192.749832 262.116486,192.749832 
	C260.853088,185.855881 259.896454,179.650375 258.432648,173.566940 
	C258.172577,172.486145 255.823334,171.255600 254.406021,171.214111 
	C246.588531,170.985275 238.760834,171.092773 230.936676,171.105850 
	C219.154541,171.125534 214.217987,176.029007 214.208435,187.803940 
	C214.187363,213.773544 214.177170,239.743225 214.232391,265.712738 
	C214.238358,268.522522 214.573853,271.350311 214.982040,274.136688 
	C215.866425,280.174042 218.940353,284.835205 225.334015,285.116852 
	C236.078247,285.590088 246.858459,285.246399 258.146484,285.246399 
	C259.357666,278.902863 260.644165,272.164948 262.035309,264.878967 
	C255.210129,264.878967 249.077377,264.796265 242.948303,264.910889 
	C239.439331,264.976501 237.766220,263.802216 237.942535,259.977509 
	C238.195236,254.495575 238.006485,248.993332 238.006271,242.499847 
M316.374359,171.097824 
	C305.876038,171.097610 295.376831,171.033463 284.880402,171.173828 
	C283.485260,171.192474 281.178253,171.940399 280.865631,172.875931 
	C278.738190,179.242310 277.032166,185.749496 275.033630,192.760056 
	C279.063660,192.760056 282.236450,193.021805 285.347656,192.695602 
	C289.487366,192.261566 290.321381,194.055450 290.302460,197.838409 
	C290.165924,225.166718 290.229340,252.496017 290.229401,279.825012 
	C290.229431,281.759491 290.229401,283.694000 290.229401,285.609039 
	C298.543365,285.609039 306.102539,285.609039 314.259033,285.609039 
	C314.259033,254.494202 314.259033,223.775787 314.259033,192.555237 
	C319.450653,192.555237 324.036804,192.555237 329.325592,192.555237 
	C327.814697,186.980743 325.995453,182.125931 325.280151,177.113571 
	C324.547089,171.977203 322.111145,170.291443 316.374359,171.097824 
M448.022888,257.500000 
	C448.022888,266.917145 448.022888,276.334259 448.022888,285.649475 
	C456.114319,285.649475 463.365021,285.649475 470.671112,285.649475 
	C470.671112,247.397583 470.671112,209.499115 470.671112,171.392181 
	C463.095245,171.392181 455.854309,171.392181 448.022919,171.392181 
	C448.022919,199.949188 448.022919,228.224594 448.022888,257.500000 
M354.996887,39.421482 
	C353.830353,40.745399 352.921082,42.663513 351.455963,43.297813 
	C341.122284,47.771652 333.804230,55.067966 330.178406,65.735107 
	C328.869232,69.586723 328.404449,73.725372 327.554352,77.733040 
	C327.215302,77.448837 326.876251,77.164627 326.537201,76.880424 
	C324.823730,78.458504 321.476593,80.332375 321.698822,81.560005 
	C322.405426,85.462761 325.700775,83.598053 328.178223,83.159019 
	C347.269257,79.775795 366.359833,76.389496 385.451630,73.010559 
	C391.816864,71.884010 398.218719,70.927101 404.524872,69.535004 
	C405.819519,69.249214 406.761932,67.367836 407.866730,66.221939 
	C406.401306,65.517815 404.992645,64.604164 403.449707,64.186295 
	C402.487946,63.925827 401.323303,64.414383 400.329742,64.555435 
	C393.414520,49.405800 382.253082,41.159180 365.625885,40.774258 
	C364.334198,40.744358 363.096680,38.909187 361.810852,37.943928 
	C360.457855,36.928261 359.171936,35.487362 357.662720,35.177685 
	C357.040863,35.050091 355.912811,37.389320 354.996887,39.421482 
M222.326218,109.970695 
	C217.307785,110.834625 212.289352,111.698555 206.840576,112.636574 
	C207.410049,115.337814 207.872849,117.533127 208.443588,120.240395 
	C249.801270,113.037987 290.760010,105.905060 331.910889,98.738663 
	C331.336945,95.847656 330.894135,93.617226 330.404114,91.148956 
	C316.709381,93.495903 303.303436,95.756165 289.911560,98.096779 
	C267.664917,101.985016 245.427261,105.924858 222.326218,109.970695 
M449.933228,48.557396 
	C449.971863,44.792088 448.524567,43.786922 444.634338,44.661423 
	C437.374207,46.293442 429.900543,46.973789 422.637695,48.596077 
	C418.544373,49.510395 417.329651,48.172459 416.772583,44.411167 
	C415.754456,37.537136 414.334198,30.722845 413.091644,23.881830 
	C411.871765,17.165932 411.877197,17.164946 404.749573,20.045288 
	C406.927277,32.549679 409.127167,45.181438 411.418884,58.340565 
	C424.110962,56.122246 436.163239,54.054092 448.184692,51.819893 
	C448.910248,51.685051 449.389954,50.227673 449.933228,48.557396 
M231.763809,85.024956 
	C251.438156,81.625847 271.112488,78.226730 290.981812,74.793938 
	C290.351074,71.782845 289.888458,69.574425 289.383026,67.161713 
	C267.748108,70.943535 246.440369,74.668167 225.258194,78.370850 
	C225.083832,85.873146 225.504379,86.326660 231.763809,85.024956 
M277.191864,53.842854 
	C265.252808,55.900303 253.323685,58.017895 241.370560,59.990082 
	C235.301300,60.991467 234.871246,61.611561 237.198151,68.141762 
	C239.054825,68.001831 241.047485,68.018036 242.978073,67.679970 
	C259.159332,64.846413 275.325256,61.925457 291.504456,59.080025 
	C297.833313,57.966965 297.934967,57.872444 295.901947,50.687778 
	C290.014771,51.652901 284.023010,52.635166 277.191864,53.842854 
M267.886597,86.341461 
	C267.246338,86.518562 266.611145,86.717346 265.964905,86.868958 
	C263.352997,87.481705 259.392303,86.193344 260.115448,91.326599 
	C260.821716,96.339920 264.039917,94.976387 267.176544,94.423584 
	C277.946930,92.525337 288.741974,90.767105 299.516266,88.890450 
	C304.638794,87.998215 309.735718,86.959023 315.019165,85.953087 
	C314.386230,83.151459 313.956390,81.248848 313.367126,78.640457 
	C298.348083,81.177406 283.540497,83.678627 267.886597,86.341461 
z"/>
<path fill="#F5BC88" opacity="1.000000" stroke="none" 
	d="
M425.625000,0.999997 
	C432.485107,6.645591 438.891998,12.384335 445.474152,17.914400 
	C454.770294,25.724642 464.231750,33.338139 473.525391,41.151279 
	C474.819916,42.239594 476.179230,43.873779 476.464600,45.444912 
	C480.024536,65.043274 483.396149,84.675880 486.786713,104.304771 
	C486.891968,104.914192 486.681213,105.578194 486.598877,106.407303 
	C485.058777,106.741531 483.631775,107.252052 482.181213,107.331131 
	C476.012512,107.667381 472.337067,109.799416 469.740112,116.436226 
	C465.474701,127.336990 449.213989,128.398529 441.858429,118.872894 
	C439.631775,115.989304 437.930573,114.996994 434.145966,115.680984 
	C401.635590,121.556541 369.066162,127.104668 336.535675,132.870941 
	C335.030212,133.137772 332.724426,134.341888 332.493713,135.460526 
	C331.029022,142.562866 326.529114,146.701019 320.134796,149.891144 
	C321.639069,149.891144 323.143372,149.891083 324.647644,149.891159 
	C375.139893,149.893616 425.632141,149.896011 476.124390,149.898911 
	C477.457489,149.899002 478.926666,149.556549 480.083984,150.009033 
	C481.159210,150.429428 482.607391,151.698776 482.609497,152.597366 
	C482.612061,153.682022 481.472229,155.100571 480.435577,155.752792 
	C479.590240,156.284683 478.169434,155.921799 477.003784,155.921875 
	C403.181793,155.927078 329.359802,155.928818 255.537796,155.930862 
	C253.904800,155.930908 252.271805,155.930862 250.237045,155.930862 
	C250.106613,153.905060 250.004974,152.326462 249.870224,150.233490 
	C270.437714,150.233490 290.661499,150.233490 310.884583,150.233490 
	C306.743134,146.763992 302.830872,143.486511 298.085724,139.511246 
	C297.870605,139.539917 296.250793,139.751236 294.632263,139.972382 
	C284.839233,141.310364 284.837006,141.311493 283.191345,131.409424 
	C282.704681,128.481216 282.235046,125.550186 281.695740,122.240913 
	C268.921478,124.357826 256.436920,126.426735 243.759537,128.527588 
	C243.182816,125.732231 242.786560,123.811569 242.226151,121.095314 
	C259.597992,118.043709 276.822601,115.017967 294.585327,111.897690 
	C294.800537,114.653206 294.975372,116.891396 295.141022,119.012039 
	C289.268311,121.245773 289.268311,121.245773 291.487061,131.707611 
	C295.301971,132.474701 298.158508,132.432739 299.467346,127.379776 
	C301.137390,120.932579 305.665314,117.020912 312.465179,115.847450 
	C319.391754,114.652115 325.093445,116.990555 329.185638,122.264885 
	C331.216034,124.881798 333.063232,125.417709 335.894562,124.924004 
	C368.435913,119.249603 400.980682,113.594688 433.527039,107.948929 
	C436.110931,107.500710 437.986908,106.678513 438.796387,103.662003 
	C440.649567,96.756165 445.497925,92.418556 452.427399,91.350204 
	C459.288055,90.292450 465.292603,92.723167 469.267303,98.701065 
	C471.835968,102.564323 474.649292,100.519127 477.998322,99.601959 
	C475.879913,87.441597 472.275635,75.418686 472.044983,63.331387 
	C471.724701,46.548695 459.646545,39.596188 449.165649,30.841059 
	C442.272705,25.083094 435.187317,19.552069 428.381287,13.694923 
	C424.705048,10.531200 421.129517,9.645435 416.143829,10.539394 
	C375.129639,17.893475 334.051453,24.890530 292.991364,31.988468 
	C288.738037,32.723728 284.410675,33.155205 280.246002,34.226585 
	C278.115540,34.774651 276.362854,36.654816 274.268433,37.518154 
	C272.226288,38.359951 269.966187,38.673130 267.992249,39.170406 
	C267.464966,38.268250 267.222168,38.008175 267.150330,37.707279 
	C265.074615,29.012424 265.053345,28.873829 273.804382,27.347494 
	C322.216919,18.903511 370.642029,10.531896 419.063385,2.138693 
	C420.203766,1.941026 421.350647,1.781034 422.747253,1.301735 
	C423.750000,1.000000 424.500000,1.000000 425.625000,0.999997 
M451.578430,118.238274 
	C456.401642,119.777786 460.521088,118.462372 463.524414,114.592316 
	C466.451263,110.820732 466.427917,106.599884 463.836334,102.550110 
	C461.442261,98.808929 457.855438,97.234314 453.581879,98.049255 
	C449.478302,98.831779 446.038086,100.992813 445.088013,105.408089 
	C443.907104,110.895775 445.943390,115.139839 451.578430,118.238274 
M317.047180,142.900116 
	C323.812134,140.714096 327.031067,136.182495 325.800934,130.576691 
	C324.622345,125.205612 319.659027,121.411293 314.638397,122.043198 
	C308.950409,122.759109 304.704926,127.535675 305.026794,132.857147 
	C305.395111,138.946274 309.513885,142.656998 317.047180,142.900116 
z"/>
<path fill="#F0957B" opacity="1.000000" stroke="none" 
	d="
M1.000000,171.468658 
	C13.662739,171.037140 26.325592,171.052170 38.988182,171.117752 
	C51.137722,171.180664 55.989601,176.015091 56.003578,188.054077 
	C56.022343,204.217377 56.017113,220.380722 56.005608,236.544037 
	C55.999676,244.879135 54.134556,247.429962 45.952972,249.978653 
	C49.793774,261.740570 53.636028,273.506958 57.713203,285.992737 
	C50.011501,285.992737 43.208687,286.157501 36.428741,285.837616 
	C35.237644,285.781403 33.549839,283.888519 33.098278,282.513245 
	C29.986572,273.036285 27.177977,263.460266 24.176012,253.946320 
	C23.688349,252.400833 22.724945,251.005447 21.981438,249.540680 
	C21.478922,249.650894 20.976406,249.761108 20.473890,249.871307 
	C20.473890,261.656708 20.473890,273.442108 20.473890,286.003174 
	C13.783251,286.003174 7.860091,286.003174 1.468466,286.001587 
	C1.000000,247.979111 1.000000,209.958206 1.000000,171.468658 
M20.000889,228.240768 
	C20.505547,229.128662 20.953323,230.739334 21.524324,230.784271 
	C24.655409,231.030701 27.848076,231.135025 30.947487,230.732666 
	C31.817066,230.619766 33.066708,228.638138 33.083599,227.497986 
	C33.245934,216.542801 33.262512,205.582809 33.063503,194.628845 
	C33.042370,193.465714 31.486048,191.473145 30.455700,191.343323 
	C27.104807,190.921097 23.667418,191.185333 19.995028,191.185333 
	C19.995028,203.731216 19.995028,215.508820 20.000889,228.240768 
z"/>
<path fill="#F19B83" opacity="1.000000" stroke="none" 
	d="
M697.000000,285.625000 
	C690.668030,286.001282 684.326416,285.793976 678.007751,286.085052 
	C674.436096,286.249603 673.360107,284.647705 673.072388,281.540009 
	C672.797180,278.567566 672.259399,275.619446 671.784241,272.290405 
	C666.660522,272.290405 661.611755,272.290405 656.211975,272.290405 
	C655.741028,275.635956 655.239746,278.889648 654.836731,282.155487 
	C654.504944,284.844086 653.447754,286.199890 650.360413,286.077698 
	C644.072083,285.828827 637.767090,286.003235 631.000610,286.003235 
	C633.556396,271.724640 635.988098,258.025757 638.463501,244.334747 
	C642.630981,221.285782 646.905151,198.255554 650.917664,175.179749 
	C651.468445,172.012238 652.582458,170.945770 655.694519,171.048477 
	C661.353882,171.235245 667.025574,171.187180 672.688477,171.065186 
	C675.292236,171.009079 676.506470,171.814606 676.998901,174.580002 
	C683.404480,210.556076 689.931702,246.510513 696.714111,282.735199 
	C697.000000,283.750000 697.000000,284.500000 697.000000,285.625000 
M665.060364,220.477142 
	C664.900208,218.971039 664.740112,217.464935 664.580017,215.958832 
	C664.219299,215.964233 663.858582,215.969635 663.497864,215.975052 
	C661.903564,228.399704 660.309204,240.824371 658.683533,253.493561 
	C662.664612,253.493561 665.576721,253.493561 669.370422,253.493561 
	C667.938721,242.505798 666.557861,231.908310 665.060364,220.477142 
z"/>
<path fill="#F4B983" opacity="1.000000" stroke="none" 
	d="
M251.467941,363.000000 
	C241.139328,358.652985 236.909576,351.217621 237.896881,340.404938 
	C238.424866,334.622650 237.964828,328.752380 237.997147,322.922089 
	C238.051712,313.079498 245.249786,305.523865 255.099380,305.117157 
	C259.256165,304.945496 263.434875,304.948120 267.589661,305.153687 
	C277.592010,305.648529 284.986084,314.782166 283.391663,324.821411 
	C280.006653,324.821411 276.569366,324.821411 273.980194,324.821411 
	C271.894196,321.983612 270.458069,317.951721 268.311127,317.528900 
	C263.386383,316.558960 258.061035,316.968933 253.021301,317.684723 
	C251.717010,317.869965 250.054504,321.211243 249.953705,323.174530 
	C249.586960,330.318726 249.814865,337.493317 249.813553,344.656464 
	C249.812775,348.956268 251.905991,351.124512 256.255341,351.080017 
	C259.420105,351.047638 262.587738,351.154663 265.750061,351.062012 
	C270.748413,350.915527 272.197388,349.071625 271.631622,343.281647 
	C268.413177,343.281647 265.139160,343.281647 261.428467,343.281647 
	C261.428467,339.448914 261.428467,336.069031 261.428467,331.898376 
	C264.964722,331.898376 268.555695,331.898376 272.146698,331.898376 
	C275.802856,331.898376 279.459045,331.898376 283.065643,331.898376 
	C285.916382,348.651184 283.481049,359.136414 269.226196,362.721619 
	C263.311951,363.000000 257.623932,363.000000 251.467941,363.000000 
z"/>
<path fill="#F4B984" opacity="1.000000" stroke="none" 
	d="
M309.467957,363.000000 
	C305.291443,359.915497 301.171722,357.189209 298.043671,353.598938 
	C296.422424,351.738159 296.084412,348.364136 295.988953,345.644897 
	C295.726318,338.162292 295.878601,330.664398 295.902313,323.172638 
	C295.933716,313.235626 300.720581,306.986542 310.514496,305.555176 
	C316.036926,304.748077 321.857574,304.805450 327.396637,305.557617 
	C336.155853,306.747040 341.653503,314.011200 341.880554,323.707123 
	C342.044189,330.695587 342.010986,337.692841 341.884827,344.682922 
	C341.716797,353.993622 336.569672,360.223083 327.226379,362.721985 
	C321.311951,363.000000 315.623932,363.000000 309.467957,363.000000 
M330.024078,345.893616 
	C330.043732,338.583282 330.130402,331.272308 330.060181,323.962830 
	C330.010834,318.821289 328.210571,317.044342 323.209229,316.929382 
	C320.386108,316.864502 317.559998,316.890778 314.735718,316.921204 
	C309.280945,316.979980 307.387695,318.480347 307.188141,323.845581 
	C306.928955,330.814423 307.001434,337.802460 307.156799,344.777191 
	C307.243286,348.659302 309.465942,350.910339 313.436859,351.049774 
	C316.590027,351.160553 319.753174,350.990570 322.905945,351.106720 
	C326.272888,351.230804 328.726562,350.075043 330.024078,345.893616 
z"/>
<path fill="#F5BB87" opacity="1.000000" stroke="none" 
	d="
M364.468628,363.000000 
	C364.000000,359.220276 364.000000,355.440521 364.000000,351.506653 
	C366.281982,351.185333 367.870605,350.961670 370.047455,350.655151 
	C370.047455,340.137970 370.147614,329.707245 369.885803,319.285553 
	C369.860809,318.290955 367.575134,317.353149 366.014984,316.136292 
	C363.763580,323.460724 362.779205,323.866547 353.314087,322.203308 
	C353.314087,316.726196 353.314087,311.190216 353.314087,305.363403 
	C368.482452,305.363403 383.369812,305.363403 398.636230,305.363403 
	C398.636230,311.049316 398.636230,316.586761 398.636230,322.799011 
	C395.742493,322.799011 392.940887,323.039062 390.217926,322.681000 
	C389.127136,322.537567 387.392548,321.110565 387.356293,320.211151 
	C387.210144,316.586212 385.252350,316.605042 382.296875,317.360687 
	C382.296875,328.327118 382.296875,339.369080 382.296875,350.783325 
	C387.736786,350.173645 388.279144,353.467712 387.845551,357.604584 
	C387.690521,359.083588 387.847931,360.595337 387.931366,362.546082 
	C380.312408,363.000000 372.624847,363.000000 364.468628,363.000000 
z"/>
<path fill="#F5BB88" opacity="1.000000" stroke="none" 
	d="
M491.468628,363.000000 
	C491.000000,359.345795 491.000000,355.691620 491.000000,351.787567 
	C492.621124,351.357147 494.147980,350.951752 496.160828,350.417297 
	C496.160828,340.120850 496.275452,329.835114 495.993195,319.560272 
	C495.963135,318.466797 493.610840,317.437134 491.880463,315.999512 
	C490.170807,323.428589 489.834625,323.573547 479.490662,322.419617 
	C479.490662,316.936859 479.490662,311.395844 479.490662,305.461243 
	C494.426056,305.461243 509.316345,305.461243 524.656250,305.461243 
	C524.656250,310.963287 524.656250,316.498505 524.656250,322.431335 
	C521.261902,322.431335 517.880554,322.431335 514.310974,322.431335 
	C514.027954,320.671509 513.772461,319.082764 513.475342,317.235107 
	C511.754456,317.235107 510.185120,317.235107 508.312134,317.235107 
	C508.312134,328.358948 508.312134,339.280640 508.312134,350.541992 
	C509.985596,350.869324 511.692108,351.203064 513.909241,351.636719 
	C513.909241,355.168396 513.909241,358.623901 513.954590,362.539703 
	C506.645752,363.000000 499.291504,363.000000 491.468628,363.000000 
z"/>
<path fill="#F4B781" opacity="1.000000" stroke="none" 
	d="
M169.468628,363.000000 
	C169.000000,359.343231 169.000000,355.686462 169.000000,351.712036 
	C170.885864,351.333282 172.598038,350.989441 174.595703,350.588257 
	C174.595703,339.629089 174.595703,328.706573 174.595703,317.435333 
	C173.016846,317.159851 171.440399,316.884796 169.427414,316.533569 
	C169.427414,313.070740 169.427414,309.506744 169.427414,305.512329 
	C176.651550,305.512329 184.016113,305.512329 191.695587,305.512329 
	C191.695587,309.204437 191.695587,312.762970 191.695587,316.543549 
	C189.881943,316.800629 188.288544,317.026489 186.410095,317.292786 
	C186.410095,328.353180 186.410095,339.276123 186.410095,350.539520 
	C188.095032,350.875397 189.801437,351.215576 191.973877,351.648682 
	C191.973877,355.158142 191.973877,358.616760 191.986938,362.537689 
	C184.645752,363.000000 177.291504,363.000000 169.468628,363.000000 
z"/>
<path fill="#F4B984" opacity="1.000000" stroke="none" 
	d="
M445.468628,363.000000 
	C445.000000,359.224304 445.000000,355.448639 445.000000,351.480682 
	C447.053406,351.200012 448.651703,350.981567 450.568024,350.719666 
	C450.568024,339.586029 450.568024,328.550964 450.568024,317.309479 
	C448.776855,317.046997 447.185150,316.813721 445.260315,316.531647 
	C445.260315,312.884766 445.260315,309.335114 445.260315,305.432556 
	C452.634155,305.432556 459.871002,305.432556 467.558136,305.432556 
	C467.558136,308.934906 467.558136,312.481110 467.558136,316.377777 
	C466.051300,316.688751 464.342133,317.041504 462.376984,317.447083 
	C462.376984,328.418488 462.376984,339.320312 462.376984,350.560638 
	C463.989563,350.840820 465.563782,351.114319 467.973785,351.533051 
	C467.973785,354.930664 467.973785,358.502991 467.986877,362.537659 
	C460.645752,363.000000 453.291504,363.000000 445.468628,363.000000 
z"/>
<path fill="#F19A81" opacity="1.000000" stroke="none" 
	d="
M430.891602,215.000000 
	C430.885254,223.829529 431.025909,232.162445 430.833679,240.487686 
	C430.616455,249.894806 426.715118,254.347061 417.337219,255.054977 
	C410.113098,255.600327 402.814850,255.163696 395.103699,255.163696 
	C395.103699,265.927399 395.103699,275.529541 395.103699,285.565613 
	C387.301331,285.565613 379.945801,285.565613 372.288208,285.565613 
	C372.288208,247.598221 372.288208,209.703598 372.288208,171.099503 
	C374.188141,171.099503 375.954681,171.099442 377.721222,171.099518 
	C389.882385,171.100037 402.043579,171.090302 414.204742,171.103958 
	C426.664276,171.117950 430.865479,175.377045 430.887848,188.012054 
	C430.903442,196.841354 430.891357,205.670685 430.891602,215.000000 
M397.669922,236.229111 
	C399.167786,236.233215 400.691956,236.058380 402.158630,236.274292 
	C406.924500,236.975861 408.499542,235.143524 408.304352,230.278015 
	C407.931030,220.972855 408.194031,211.642136 408.193695,202.322021 
	C408.193268,190.297089 408.193329,190.294006 396.213043,191.306152 
	C395.926575,191.330353 395.663300,191.629333 394.969482,192.061707 
	C394.969482,205.916641 394.945190,220.028793 395.043640,234.140091 
	C395.048370,234.820984 396.133575,235.494339 397.669922,236.229111 
z"/>
<path fill="#F1977D" opacity="1.000000" stroke="none" 
	d="
M187.059723,286.003662 
	C178.075745,286.004852 178.070587,286.005798 176.552246,277.834106 
	C176.222916,276.061646 175.945251,274.279572 175.595383,272.216431 
	C170.546127,272.216431 165.632675,272.216431 160.277588,272.216431 
	C159.462952,276.676178 158.643341,281.163147 157.797791,285.792175 
	C150.196548,285.792175 142.927826,285.792175 134.936127,285.792175 
	C136.349106,277.755341 137.673523,269.999115 139.080704,262.257935 
	C144.335037,233.353378 149.710114,204.470123 154.772385,175.532074 
	C155.424042,171.806915 156.835007,170.901108 160.258133,171.044662 
	C165.741684,171.274612 171.256134,170.892426 176.725311,171.254944 
	C178.148331,171.349258 180.433578,173.063873 180.667664,174.338303 
	C187.442017,211.220535 194.006027,248.141388 200.592926,285.057983 
	C200.615860,285.186493 200.479813,285.343323 200.195648,286.003601 
	C196.132980,286.003601 191.839874,286.003601 187.059723,286.003662 
M166.353378,223.149780 
	C165.130875,233.131744 163.908371,243.113693 162.645935,253.421677 
	C166.531204,253.421677 169.588028,253.421677 173.287155,253.421677 
	C171.713455,241.494247 170.197678,230.005737 168.681900,218.517227 
	C168.241241,218.556824 167.800598,218.596420 167.359940,218.636002 
	C167.096954,219.878479 166.833969,221.120956 166.353378,223.149780 
z"/>
<path fill="#F19B82" opacity="1.000000" stroke="none" 
	d="
M586.840088,271.901550 
	C583.217529,271.901398 580.069702,271.901398 576.444641,271.901398 
	C575.906372,275.520844 575.629395,278.967499 574.790710,282.271576 
	C574.436768,283.665894 572.947449,285.774811 571.891479,285.825165 
	C565.117798,286.148407 558.321045,285.990143 551.118652,285.990143 
	C553.542358,272.373199 555.832275,259.333282 558.189026,246.305481 
	C562.442993,222.790237 566.805115,199.294189 570.938171,175.757828 
	C571.535217,172.358047 572.610901,170.823822 576.304871,171.025269 
	C581.781921,171.323944 587.299988,170.899872 592.772034,171.241348 
	C594.219360,171.331650 596.579346,172.911209 596.804749,174.125412 
	C603.620117,210.835831 610.221252,247.586029 616.840393,284.332794 
	C616.895386,284.638153 616.737915,284.981750 616.617310,285.655762 
	C609.293335,285.655762 601.903625,285.655762 594.135071,285.655762 
	C593.368835,281.252899 592.608215,276.882324 591.790588,272.183960 
	C590.222595,272.085083 588.768616,271.993378 586.840088,271.901550 
M589.022034,250.401367 
	C587.583740,238.689850 586.145447,226.978333 584.707153,215.266800 
	C584.397156,215.253769 584.087097,215.240738 583.777100,215.227707 
	C582.121216,227.905411 580.465332,240.583115 578.685547,254.209717 
	C582.842712,252.524323 587.006836,256.595215 589.022034,250.401367 
z"/>
<path fill="#F1967D" opacity="1.000000" stroke="none" 
	d="
M101.259705,264.877411 
	C108.202217,264.880402 114.670212,264.880402 121.772766,264.880402 
	C120.421249,272.158234 119.168533,278.903992 117.894913,285.762329 
	C103.214615,285.762329 88.958679,285.762329 74.383369,285.762329 
	C74.383369,247.630890 74.383369,209.742920 74.383369,171.104019 
	C79.230545,171.104019 83.991745,171.103836 88.752937,171.104065 
	C97.581245,171.104477 106.412155,170.999802 115.235130,171.217056 
	C116.588356,171.250381 118.825775,172.548691 119.085403,173.636414 
	C120.501823,179.570572 121.427483,185.621887 122.659897,192.390778 
	C114.244263,192.390778 106.535118,192.390778 98.364304,192.390778 
	C98.364304,201.735367 98.364304,210.437729 98.364304,219.681107 
	C104.228333,219.681107 110.150818,219.681107 116.838387,219.681107 
	C116.838387,225.942612 116.986359,231.708344 116.673141,237.448914 
	C116.628006,238.276154 114.395760,239.570374 113.120712,239.639786 
	C108.326164,239.900864 103.508896,239.744461 97.947418,239.744461 
	C97.947418,247.715088 97.875107,255.310104 98.070786,262.898224 
	C98.088364,263.579834 99.839256,264.216736 101.259705,264.877411 
z"/>
<path fill="#F19A82" opacity="1.000000" stroke="none" 
	d="
M501.005402,286.005920 
	C495.863373,286.005951 491.220215,286.005951 485.651184,286.005951 
	C494.233490,254.823624 502.658081,224.214401 511.286530,192.864502 
	C503.308624,192.864502 495.910278,192.864502 487.604187,192.864502 
	C488.927063,185.335632 490.116211,178.567856 491.363617,171.468491 
	C507.901398,171.468491 524.248779,171.468491 541.177612,171.468491 
	C532.975220,202.634979 524.881897,233.387253 516.593933,264.878845 
	C524.095032,264.878845 530.830994,264.878845 537.994751,264.878845 
	C536.836182,271.374420 535.999817,277.274994 534.586182,283.033844 
	C534.279297,284.284302 531.923462,285.834473 530.475403,285.872406 
	C520.823792,286.125244 511.162445,286.004974 501.005402,286.005920 
z"/>
<path fill="#F1987E" opacity="1.000000" stroke="none" 
	d="
M238.006241,242.999802 
	C238.006485,248.993332 238.195236,254.495575 237.942535,259.977509 
	C237.766220,263.802216 239.439331,264.976501 242.948303,264.910889 
	C249.077377,264.796265 255.210129,264.878967 262.035309,264.878967 
	C260.644165,272.164948 259.357666,278.902863 258.146484,285.246399 
	C246.858459,285.246399 236.078247,285.590088 225.334015,285.116852 
	C218.940353,284.835205 215.866425,280.174042 214.982040,274.136688 
	C214.573853,271.350311 214.238358,268.522522 214.232391,265.712738 
	C214.177170,239.743225 214.187363,213.773544 214.208435,187.803940 
	C214.217987,176.029007 219.154541,171.125534 230.936676,171.105850 
	C238.760834,171.092773 246.588531,170.985275 254.406021,171.214111 
	C255.823334,171.255600 258.172577,172.486145 258.432648,173.566940 
	C259.896454,179.650375 260.853088,185.855881 262.116486,192.749832 
	C255.285690,192.749832 249.007782,192.928879 242.746628,192.682480 
	C239.008820,192.535400 237.882965,193.836441 237.928894,197.553406 
	C238.113998,212.533585 238.005997,227.517380 238.006241,242.999802 
z"/>
<path fill="#F19A81" opacity="1.000000" stroke="none" 
	d="
M316.852142,171.097931 
	C322.111145,170.291443 324.547089,171.977203 325.280151,177.113571 
	C325.995453,182.125931 327.814697,186.980743 329.325592,192.555237 
	C324.036804,192.555237 319.450653,192.555237 314.259033,192.555237 
	C314.259033,223.775787 314.259033,254.494202 314.259033,285.609039 
	C306.102539,285.609039 298.543365,285.609039 290.229401,285.609039 
	C290.229401,283.694000 290.229431,281.759491 290.229401,279.825012 
	C290.229340,252.496017 290.165924,225.166718 290.302460,197.838409 
	C290.321381,194.055450 289.487366,192.261566 285.347656,192.695602 
	C282.236450,193.021805 279.063660,192.760056 275.033630,192.760056 
	C277.032166,185.749496 278.738190,179.242310 280.865631,172.875931 
	C281.178253,171.940399 283.485260,171.192474 284.880402,171.173828 
	C295.376831,171.033463 305.876038,171.097610 316.852142,171.097931 
z"/>
<path fill="#F19980" opacity="1.000000" stroke="none" 
	d="
M448.022888,257.000000 
	C448.022919,228.224594 448.022919,199.949188 448.022919,171.392181 
	C455.854309,171.392181 463.095245,171.392181 470.671112,171.392181 
	C470.671112,209.499115 470.671112,247.397583 470.671112,285.649475 
	C463.365021,285.649475 456.114319,285.649475 448.022888,285.649475 
	C448.022888,276.334259 448.022888,266.917145 448.022888,257.000000 
z"/>
<path fill="#F5BA85" opacity="1.000000" stroke="none" 
	d="
M355.005920,39.014008 
	C355.912811,37.389320 357.040863,35.050091 357.662720,35.177685 
	C359.171936,35.487362 360.457855,36.928261 361.810852,37.943928 
	C363.096680,38.909187 364.334198,40.744358 365.625885,40.774258 
	C382.253082,41.159180 393.414520,49.405800 400.329742,64.555435 
	C401.323303,64.414383 402.487946,63.925827 403.449707,64.186295 
	C404.992645,64.604164 406.401306,65.517815 407.866730,66.221939 
	C406.761932,67.367836 405.819519,69.249214 404.524872,69.535004 
	C398.218719,70.927101 391.816864,71.884010 385.451630,73.010559 
	C366.359833,76.389496 347.269257,79.775795 328.178223,83.159019 
	C325.700775,83.598053 322.405426,85.462761 321.698822,81.560005 
	C321.476593,80.332375 324.823730,78.458504 326.537201,76.880424 
	C326.876251,77.164627 327.215302,77.448837 327.554352,77.733040 
	C328.404449,73.725372 328.869232,69.586723 330.178406,65.735107 
	C333.804230,55.067966 341.122284,47.771652 351.455963,43.297813 
	C352.921082,42.663513 353.830353,40.745399 355.005920,39.014008 
z"/>
<path fill="#F4BA86" opacity="1.000000" stroke="none" 
	d="
M222.756012,109.906830 
	C245.427261,105.924858 267.664917,101.985016 289.911560,98.096779 
	C303.303436,95.756165 316.709381,93.495903 330.404114,91.148956 
	C330.894135,93.617226 331.336945,95.847656 331.910889,98.738663 
	C290.760010,105.905060 249.801270,113.037987 208.443588,120.240395 
	C207.872849,117.533127 207.410049,115.337814 206.840576,112.636574 
	C212.289352,111.698555 217.307785,110.834625 222.756012,109.906830 
z"/>
<path fill="#F5BD8B" opacity="1.000000" stroke="none" 
	d="
M449.958618,48.971535 
	C449.389954,50.227673 448.910248,51.685051 448.184692,51.819893 
	C436.163239,54.054092 424.110962,56.122246 411.418884,58.340565 
	C409.127167,45.181438 406.927277,32.549679 404.749573,20.045288 
	C411.877197,17.164946 411.871765,17.165932 413.091644,23.881830 
	C414.334198,30.722845 415.754456,37.537136 416.772583,44.411167 
	C417.329651,48.172459 418.544373,49.510395 422.637695,48.596077 
	C429.900543,46.973789 437.374207,46.293442 444.634338,44.661423 
	C448.524567,43.786922 449.971863,44.792088 449.958618,48.971535 
z"/>
<path fill="#F4BA86" opacity="1.000000" stroke="none" 
	d="
M231.347412,85.083206 
	C225.504379,86.326660 225.083832,85.873146 225.258194,78.370850 
	C246.440369,74.668167 267.748108,70.943535 289.383026,67.161713 
	C289.888458,69.574425 290.351074,71.782845 290.981812,74.793938 
	C271.112488,78.226730 251.438156,81.625847 231.347412,85.083206 
z"/>
<path fill="#F4BA86" opacity="1.000000" stroke="none" 
	d="
M277.611572,53.730145 
	C284.023010,52.635166 290.014771,51.652901 295.901947,50.687778 
	C297.934967,57.872444 297.833313,57.966965 291.504456,59.080025 
	C275.325256,61.925457 259.159332,64.846413 242.978073,67.679970 
	C241.047485,68.018036 239.054825,68.001831 237.198151,68.141762 
	C234.871246,61.611561 235.301300,60.991467 241.370560,59.990082 
	C253.323685,58.017895 265.252808,55.900303 277.611572,53.730145 
z"/>
<path fill="#F4BA86" opacity="1.000000" stroke="none" 
	d="
M268.309753,86.260658 
	C283.540497,83.678627 298.348083,81.177406 313.367126,78.640457 
	C313.956390,81.248848 314.386230,83.151459 315.019165,85.953087 
	C309.735718,86.959023 304.638794,87.998215 299.516266,88.890450 
	C288.741974,90.767105 277.946930,92.525337 267.176544,94.423584 
	C264.039917,94.976387 260.821716,96.339920 260.115448,91.326599 
	C259.392303,86.193344 263.352997,87.481705 265.964905,86.868958 
	C266.611145,86.717346 267.246338,86.518562 268.309753,86.260658 
z"/>
<path fill="#FFFEFE" opacity="1.000000" stroke="none" 
	d="
M451.225677,118.082214 
	C445.943390,115.139839 443.907104,110.895775 445.088013,105.408089 
	C446.038086,100.992813 449.478302,98.831779 453.581879,98.049255 
	C457.855438,97.234314 461.442261,98.808929 463.836334,102.550110 
	C466.427917,106.599884 466.451263,110.820732 463.524414,114.592316 
	C460.521088,118.462372 456.401642,119.777786 451.225677,118.082214 
z"/>
<path fill="#FFFEFE" opacity="1.000000" stroke="none" 
	d="
M316.647064,142.932953 
	C309.513885,142.656998 305.395111,138.946274 305.026794,132.857147 
	C304.704926,127.535675 308.950409,122.759109 314.638397,122.043198 
	C319.659027,121.411293 324.622345,125.205612 325.800934,130.576691 
	C327.031067,136.182495 323.812134,140.714096 316.647064,142.932953 
z"/>
<path fill="#FFFEFE" opacity="1.000000" stroke="none" 
	d="
M19.997959,227.763596 
	C19.995028,215.508820 19.995028,203.731216 19.995028,191.185333 
	C23.667418,191.185333 27.104807,190.921097 30.455700,191.343323 
	C31.486048,191.473145 33.042370,193.465714 33.063503,194.628845 
	C33.262512,205.582809 33.245934,216.542801 33.083599,227.497986 
	C33.066708,228.638138 31.817066,230.619766 30.947487,230.732666 
	C27.848076,231.135025 24.655409,231.030701 21.524324,230.784271 
	C20.953323,230.739334 20.505547,229.128662 19.997959,227.763596 
z"/>
<path fill="#FEF8F7" opacity="1.000000" stroke="none" 
	d="
M665.118652,220.893982 
	C666.557861,231.908310 667.938721,242.505798 669.370422,253.493561 
	C665.576721,253.493561 662.664612,253.493561 658.683533,253.493561 
	C660.309204,240.824371 661.903564,228.399704 663.497864,215.975052 
	C663.858582,215.969635 664.219299,215.964233 664.580017,215.958832 
	C664.740112,217.464935 664.900208,218.971039 665.118652,220.893982 
z"/>
<path fill="#FFFEFE" opacity="1.000000" stroke="none" 
	d="
M329.964966,346.329590 
	C328.726562,350.075043 326.272888,351.230804 322.905945,351.106720 
	C319.753174,350.990570 316.590027,351.160553 313.436859,351.049774 
	C309.465942,350.910339 307.243286,348.659302 307.156799,344.777191 
	C307.001434,337.802460 306.928955,330.814423 307.188141,323.845581 
	C307.387695,318.480347 309.280945,316.979980 314.735718,316.921204 
	C317.559998,316.890778 320.386108,316.864502 323.209229,316.929382 
	C328.210571,317.044342 330.010834,318.821289 330.060181,323.962830 
	C330.130402,331.272308 330.043732,338.583282 329.964966,346.329590 
z"/>
<path fill="#FFFEFE" opacity="1.000000" stroke="none" 
	d="
M397.192780,236.200165 
	C396.133575,235.494339 395.048370,234.820984 395.043640,234.140091 
	C394.945190,220.028793 394.969482,205.916641 394.969482,192.061707 
	C395.663300,191.629333 395.926575,191.330353 396.213043,191.306152 
	C408.193329,190.294006 408.193268,190.297089 408.193695,202.322021 
	C408.194031,211.642136 407.931030,220.972855 408.304352,230.278015 
	C408.499542,235.143524 406.924500,236.975861 402.158630,236.274292 
	C400.691956,236.058380 399.167786,236.233215 397.192780,236.200165 
z"/>
<path fill="#FEF8F7" opacity="1.000000" stroke="none" 
	d="
M166.462173,222.756592 
	C166.833969,221.120956 167.096954,219.878479 167.359940,218.636002 
	C167.800598,218.596420 168.241241,218.556824 168.681900,218.517227 
	C170.197678,230.005737 171.713455,241.494247 173.287155,253.421677 
	C169.588028,253.421677 166.531204,253.421677 162.645935,253.421677 
	C163.908371,243.113693 165.130875,233.131744 166.462173,222.756592 
z"/>
<path fill="#FEF8F7" opacity="1.000000" stroke="none" 
	d="
M589.040283,250.850311 
	C587.006836,256.595215 582.842712,252.524323 578.685547,254.209717 
	C580.465332,240.583115 582.121216,227.905411 583.777100,215.227707 
	C584.087097,215.240738 584.397156,215.253769 584.707153,215.266800 
	C586.145447,226.978333 587.583740,238.689850 589.040283,250.850311 
z"/>
</svg>