<svg version="1.1" id="Layer_1" xmlns="http://www.w3.org/2000/svg" xmlns:xlink="http://www.w3.org/1999/xlink" x="0px" y="0px"
	 width="100%" viewBox="0 0 1606 1068" enable-background="new 0 0 1606 1068" xml:space="preserve">
<path fill="#FFFFFF" opacity="1.000000" stroke="none" 
	d="
M1040.000000,1069.000000 
	C693.333313,1069.000000 347.166656,1069.000000 1.000000,1069.000000 
	C1.000000,713.000000 1.000000,357.000000 1.000000,1.000000 
	C536.333313,1.000000 1071.666626,1.000000 1607.000000,1.000000 
	C1607.000000,357.000000 1607.000000,713.000000 1607.000000,1069.000000 
	C1418.166626,1069.000000 1229.333374,1069.000000 1040.000000,1069.000000 
M796.753418,488.086823 
	C803.634888,486.971893 810.565796,486.087799 817.374268,484.631714 
	C820.209961,484.025238 821.364319,484.853058 823.001587,486.989136 
	C830.994141,497.417023 846.181458,497.617279 851.193665,486.236084 
	C854.625244,478.443939 859.513611,476.776703 866.326660,475.957550 
	C867.111267,475.863190 867.866272,475.522095 868.587952,475.309296 
	C868.689087,474.581421 868.884216,474.074432 868.805664,473.614258 
	C865.397339,453.662537 861.982300,433.711945 858.486084,413.775543 
	C858.299866,412.714081 857.628845,411.502808 856.803345,410.822998 
	C840.768005,397.618622 824.697510,384.456512 808.541870,371.399872 
	C807.578247,370.621033 805.769226,370.380859 804.472351,370.598358 
	C787.120605,373.508423 769.791077,376.551483 752.453796,379.548401 
	C726.123291,384.099945 699.788330,388.625549 673.461182,393.196014 
	C664.852295,394.690521 656.261658,396.290436 647.270691,397.912903 
	C648.047302,401.538177 648.723083,404.693054 649.507996,408.356995 
	C652.042603,407.753540 654.197510,407.503815 656.131165,406.713013 
	C658.508118,405.740967 660.572632,403.812286 663.000183,403.198303 
	C667.490540,402.062469 672.153687,401.621887 676.732727,400.822418 
	C717.935181,393.628845 759.125793,386.366577 800.358826,379.353363 
	C802.751648,378.946381 806.048462,379.800049 807.961792,381.297394 
	C818.949768,389.896179 829.210632,399.485138 840.585449,407.508667 
	C849.173340,413.566376 853.063721,421.055695 853.243164,431.096039 
	C853.254700,431.742310 853.595459,432.375763 853.709167,433.028076 
	C855.777161,444.892609 857.833679,456.759094 859.864258,468.460907 
	C855.609924,470.509125 853.165344,469.882568 850.252380,466.270081 
	C841.889404,455.898560 825.931213,458.656128 821.252441,471.311371 
	C819.666016,475.602417 817.198120,476.596924 813.455627,477.191956 
	C804.610779,478.598206 795.792175,480.172180 786.970520,481.721069 
	C763.762024,485.795990 740.567566,489.953522 717.330200,493.856293 
	C715.665588,494.135864 713.082031,493.141632 711.981384,491.844116 
	C707.573914,486.648651 702.279175,483.491852 695.449707,484.441559 
	C688.292236,485.436920 683.147278,489.528046 681.121582,496.671906 
	C679.909241,500.947357 677.209351,501.447296 673.626038,500.807404 
	C671.277161,490.745789 671.277161,490.745789 677.706848,487.842316 
	C677.252441,485.676849 676.789673,483.471375 676.242004,480.861389 
	C658.673584,483.952942 641.463989,486.981354 624.047485,490.046173 
	C624.733276,493.167694 625.217346,495.370880 625.727966,497.695282 
	C638.440857,495.561981 650.809753,493.486389 663.510376,491.355133 
	C664.784058,498.222229 665.918335,504.337677 667.068481,510.538757 
	C672.369995,509.764160 677.067871,509.077789 681.765686,508.391418 
	C681.249268,509.045654 680.732849,509.699921 680.216492,510.354156 
	C683.391602,513.080017 686.566711,515.805847 689.483093,518.309570 
	C672.403320,518.309570 654.592468,518.298828 636.781616,518.315735 
	C630.999084,518.321228 630.466736,519.096863 632.233887,524.704529 
	C632.709595,524.772888 633.201355,524.905457 633.693115,524.905518 
	C709.343140,524.918396 784.993164,524.893127 860.643066,524.985046 
	C866.065613,524.991638 864.870056,521.955444 864.411011,518.257446 
	C811.072205,518.257446 757.917175,518.257446 705.838623,518.257446 
	C708.649597,514.106201 711.950684,510.101135 714.189209,505.571014 
	C715.370056,503.181396 716.222473,502.161774 718.918091,501.706512 
	C744.606445,497.368164 770.257568,492.809662 796.753418,488.086823 
M378.995483,618.500000 
	C378.995483,630.583008 378.995483,642.666016 378.995483,654.669800 
	C387.071442,654.669800 394.325043,654.669800 402.342194,654.669800 
	C402.342194,642.540161 402.342194,630.732605 402.342194,618.925110 
	C402.872009,618.794189 403.401794,618.663208 403.931610,618.532288 
	C404.723755,620.109253 405.748260,621.613342 406.269592,623.275269 
	C409.206238,632.636719 411.958862,642.056396 414.949341,651.400146 
	C415.379547,652.744324 416.716614,654.769836 417.701660,654.809631 
	C424.909637,655.101440 432.134827,654.966980 439.864258,654.966980 
	C435.776794,642.518311 431.957825,630.887329 428.009644,618.862793 
	C434.248322,617.764771 437.891571,614.380920 437.938049,608.401794 
	C438.080505,590.071716 438.096619,571.738525 437.903564,553.409241 
	C437.829651,546.390442 433.843842,541.744080 426.856110,540.726196 
	C421.625793,539.964233 416.239990,540.169128 410.922089,540.130371 
	C400.470520,540.054138 390.018005,540.107971 378.995483,540.107971 
	C378.995483,566.276245 378.995483,591.888123 378.995483,618.500000 
M753.992065,646.449585 
	C753.992065,649.205261 753.992065,651.960876 753.992065,654.644531 
	C762.029785,654.644531 769.270508,654.644531 777.126343,654.644531 
	C777.126343,644.561523 777.126343,634.831787 777.126343,624.760803 
	C781.066162,624.760803 784.381409,624.778992 787.696289,624.755798 
	C791.193970,624.731384 794.704651,624.845825 798.186279,624.586487 
	C807.684937,623.878967 812.703491,619.164612 812.797424,610.218201 
	C812.994995,591.393066 812.987610,572.563293 812.808838,553.737915 
	C812.725891,545.004333 807.737061,540.263428 798.925354,540.141785 
	C788.430664,539.997009 777.932556,540.101440 767.435913,540.098694 
	C763.147827,540.097595 758.859680,540.098511 753.992126,540.098511 
	C753.992126,575.591187 753.992126,610.525940 753.992065,646.449585 
M978.912415,655.003357 
	C985.512573,655.003357 992.112732,655.003357 999.195068,655.003357 
	C997.680542,646.550964 996.318481,638.880981 994.930359,631.215637 
	C989.627747,601.934753 984.278625,572.662109 979.076599,543.363403 
	C978.628540,540.839478 977.703857,540.005066 975.232910,540.061584 
	C969.569336,540.191101 963.890930,540.304626 958.237976,540.028015 
	C954.615295,539.850830 953.501831,541.174377 952.883850,544.702759 
	C948.123169,571.883423 943.087402,599.015808 938.162903,626.167847 
	C936.455383,635.582153 934.820496,645.009521 933.093994,654.761719 
	C941.116577,654.761719 948.544495,654.761719 956.274109,654.761719 
	C957.032898,650.108337 957.767517,645.602966 958.474304,641.268127 
	C963.893188,641.268127 968.820740,641.268127 973.865906,641.268127 
	C974.332520,644.565002 974.510376,647.587769 975.263794,650.459473 
	C975.693237,652.096008 977.062073,653.486023 978.912415,655.003357 
M537.581238,540.887573 
	C530.648315,578.732117 523.715454,616.576599 516.715576,654.787109 
	C524.900269,654.787109 532.178406,654.787109 539.892151,654.787109 
	C540.695435,650.216064 541.485596,645.719971 542.278076,641.210571 
	C547.603210,641.210571 552.519287,641.210571 557.603821,641.210571 
	C558.325073,645.861267 559.004517,650.242554 559.674988,654.565857 
	C567.566528,654.565857 575.086243,654.565857 582.941895,654.565857 
	C580.228149,639.701599 577.579224,625.326172 574.982971,610.941162 
	C570.937012,588.523682 566.888062,566.106445 562.952637,543.669495 
	C562.486938,541.014465 561.432312,539.981506 558.716125,540.064392 
	C551.894043,540.272461 545.065186,540.259644 537.581238,540.887573 
M1036.831055,651.294495 
	C1037.331787,647.903381 1037.832520,644.512207 1038.314697,641.246948 
	C1043.767334,641.246948 1048.680542,641.246948 1053.759399,641.246948 
	C1054.256226,644.832520 1054.518677,648.149902 1055.255127,651.358582 
	C1055.558838,652.681702 1056.839355,654.769897 1057.746582,654.807739 
	C1064.680176,655.097351 1071.631348,654.966736 1078.429443,654.966736 
	C1078.641479,654.079224 1078.830566,653.740784 1078.777588,653.445801 
	C1072.162231,616.687561 1065.562744,579.926270 1058.752197,543.204163 
	C1058.522705,541.967529 1056.203613,540.325378 1054.778809,540.242432 
	C1048.973267,539.904663 1043.132446,540.232117 1037.313354,540.044922 
	C1034.392090,539.951050 1033.447998,540.925842 1032.926392,543.876770 
	C1027.811157,572.808472 1022.468140,601.699768 1017.223206,630.608582 
	C1015.783997,638.541138 1014.456787,646.494080 1012.982544,654.988831 
	C1020.380615,654.988831 1027.174438,655.099365 1033.956177,654.862976 
	C1034.912231,654.829712 1035.809326,653.102600 1036.831055,651.294495 
M479.896942,580.447327 
	C479.896942,574.350037 479.896942,568.252686 479.896942,561.627686 
	C488.571838,561.627686 496.481171,561.627686 504.778625,561.627686 
	C503.652222,555.163757 502.578888,549.310120 501.632538,543.436035 
	C501.203430,540.772583 499.787903,540.023987 497.179016,540.051636 
	C485.687866,540.173523 474.194733,540.103455 462.702301,540.102966 
	C460.613098,540.102844 458.523895,540.102905 456.396484,540.102905 
	C456.396484,578.777588 456.396484,616.663818 456.396484,654.778198 
	C470.993103,654.778198 485.256165,654.778198 499.954254,654.778198 
	C501.245544,647.899719 502.517181,641.125854 503.965607,633.410278 
	C495.673462,633.410278 487.990662,633.410278 480.219940,633.410278 
	C480.219940,624.811157 480.219940,617.068665 480.219940,608.591309 
	C486.558197,608.591309 492.598755,608.591309 498.896698,608.591309 
	C498.896698,602.868835 498.688873,597.872131 498.965881,592.902466 
	C499.168640,589.264771 497.685150,588.258423 494.325623,588.401367 
	C489.727203,588.596924 485.114258,588.450195 479.896790,588.450195 
	C479.896790,585.679199 479.896790,583.556213 479.896942,580.447327 
M902.499756,540.099304 
	C894.000366,540.099609 885.499939,540.037598 877.002563,540.167053 
	C875.725769,540.186523 873.510437,540.887451 873.342651,541.635071 
	C871.902588,548.053894 870.833862,554.556030 869.517578,561.783569 
	C877.819641,561.783569 885.230957,561.783569 893.252625,561.783569 
	C884.614319,593.150085 876.179871,623.776184 867.581909,654.996277 
	C883.617798,654.996277 898.594971,655.033752 913.570862,654.913147 
	C914.584778,654.905029 916.305786,653.860779 916.483826,653.036255 
	C917.841248,646.752197 918.896484,640.402954 920.184082,633.312561 
	C912.803040,633.312561 906.070374,633.312561 898.793152,633.312561 
	C907.053040,601.946777 915.110474,571.349548 923.339905,540.099548 
	C916.106873,540.099548 909.803162,540.099548 902.499756,540.099304 
M640.144409,561.748413 
	C643.254822,562.106079 644.359619,561.000916 643.583496,557.753601 
	C642.504028,553.237488 641.565796,548.660034 641.011475,544.055359 
	C640.619751,540.801941 639.137512,539.982056 636.102112,540.046997 
	C628.282288,540.214417 620.456482,540.089783 612.633057,540.105652 
	C601.204651,540.128784 596.230347,545.085083 596.209167,556.553040 
	C596.178040,573.365051 596.195923,590.177185 596.199036,606.989258 
	C596.200928,617.309448 596.057190,627.632812 596.263489,637.949097 
	C596.506714,650.111572 601.371704,654.840759 613.426025,654.978882 
	C621.081970,655.066589 628.743103,655.119202 636.393677,654.900513 
	C637.811584,654.859924 640.170471,653.687256 640.425537,652.633118 
	C641.897339,646.550720 642.867737,640.346985 644.146545,633.435242 
	C637.152161,633.435242 630.717102,633.331116 624.287781,633.479187 
	C621.071228,633.553162 619.933228,632.392883 619.950867,629.113159 
	C620.063660,608.140320 620.073669,587.166077 619.945679,566.193420 
	C619.923279,562.536865 621.476990,561.607849 624.743530,561.711487 
	C629.565857,561.864441 634.396729,561.749329 640.144409,561.748413 
M695.977112,577.503296 
	C695.977112,572.400757 695.977112,567.298218 695.977112,561.517944 
	C701.368896,561.517944 706.056335,561.517944 711.343201,561.517944 
	C709.533813,554.645691 708.073303,548.530457 706.208801,542.541016 
	C705.872864,541.461792 703.883667,540.222839 702.641174,540.204895 
	C690.492310,540.029968 678.339050,540.031738 666.189941,540.196472 
	C664.905701,540.213867 662.840027,541.334473 662.497314,542.386353 
	C660.504822,548.503479 658.919312,554.753113 656.973083,561.761108 
	C660.836975,561.761108 664.120667,562.023499 667.344238,561.695374 
	C671.467957,561.275574 672.321411,563.034912 672.302246,566.826233 
	C672.164124,594.124512 672.228271,621.423706 672.228333,648.722656 
	C672.228333,650.663086 672.228333,652.603577 672.228333,654.659180 
	C680.461426,654.659180 688.011169,654.659180 695.976990,654.659180 
	C695.976990,629.040710 695.976990,603.771240 695.977112,577.503296 
M852.997864,652.242798 
	C852.997864,615.035339 852.997864,577.827881 852.997864,540.538208 
	C845.001343,540.538208 837.646057,540.538208 830.349976,540.538208 
	C830.349976,578.830688 830.349976,616.689636 830.349976,654.966125 
	C837.457520,654.966125 844.245239,655.014771 851.029724,654.888489 
	C851.684387,654.876343 852.318787,653.778625 852.997864,652.242798 
M735.875366,411.242920 
	C720.836609,416.977386 712.171936,427.702576 710.052368,443.765564 
	C709.889221,445.002411 707.915161,446.004089 706.775024,447.107117 
	C705.595459,448.248322 704.406555,449.379852 703.221802,450.515656 
	C704.827026,451.290863 706.467529,452.774445 708.030273,452.696594 
	C711.487000,452.524445 714.900696,451.544647 718.338867,450.933502 
	C740.927063,446.918793 763.526550,442.965424 786.084595,438.788116 
	C787.533386,438.519806 788.666626,436.547150 789.946716,435.367371 
	C788.561768,434.597717 787.188965,433.805145 785.788635,433.064575 
	C784.230042,432.240295 781.867004,431.875366 781.193909,430.602234 
	C774.196655,417.366821 763.092346,410.760773 748.461731,409.231689 
	C746.737610,409.051514 745.165771,407.293884 743.551025,406.225616 
	C742.253723,405.367371 740.998352,404.445740 739.724365,403.552246 
	C738.818848,404.992096 737.798523,406.375549 737.052856,407.893951 
	C736.638306,408.738281 736.681641,409.807495 735.875366,411.242920 
M652.063171,718.752502 
	C647.349060,719.190002 642.642456,719.828857 637.918640,720.003723 
	C633.859924,720.153931 631.852966,717.731873 631.831116,713.738525 
	C631.791870,706.575623 631.794617,699.412292 631.821106,692.249268 
	C631.835876,688.243896 633.850403,686.033264 637.903992,685.939026 
	C641.233826,685.861511 644.567017,685.918091 647.898621,685.930969 
	C651.387329,685.944458 653.730591,687.577820 654.009521,691.117126 
	C654.237671,694.011841 655.661560,694.789734 658.234192,694.684692 
	C660.679016,694.584778 663.130981,694.663147 665.486938,694.663147 
	C666.937988,683.205200 659.768982,674.493164 649.107971,674.115906 
	C644.948486,673.968628 640.774048,673.947266 636.616211,674.113831 
	C627.943298,674.461243 620.273804,681.580566 620.057739,689.760620 
	C619.824707,698.583313 619.933350,707.417908 620.061890,716.244873 
	C620.087524,718.010254 620.613953,719.882996 621.351868,721.505005 
	C627.056274,734.042786 653.510681,736.577881 662.044678,725.568726 
	C668.024902,717.853943 665.530640,709.223633 665.842407,700.339783 
	C658.925720,700.339783 652.623718,700.321228 646.322083,700.359558 
	C645.362732,700.365417 644.404968,700.635193 643.344849,700.798584 
	C643.344849,704.725525 643.344849,708.443970 643.344849,712.021179 
	C643.998657,712.290466 644.295959,712.509216 644.602722,712.523193 
	C646.263916,712.598999 647.927307,712.632568 649.590271,712.665283 
	C654.641846,712.764709 655.008362,713.413147 652.063171,718.752502 
M685.555542,729.108215 
	C692.101196,733.284851 699.436951,731.848450 706.495361,731.844727 
	C716.003967,731.839722 723.585938,724.298157 723.831177,714.806458 
	C724.033325,706.984619 723.931946,699.153015 723.860779,691.326721 
	C723.803101,684.990356 720.763428,680.404114 715.565186,676.849487 
	C709.473450,672.683899 702.703735,674.251404 696.183289,674.151794 
	C684.756042,673.977173 677.530884,681.274109 677.354614,692.781128 
	C677.250061,699.607849 677.255920,706.438721 677.358887,713.265442 
	C677.453857,719.561707 679.489563,725.003052 685.555542,729.108215 
M907.663940,688.956604 
	C907.663940,684.175842 907.663940,679.395142 907.663940,674.483398 
	C891.864868,674.483398 876.674805,674.483398 861.513794,674.483398 
	C861.513794,680.444946 861.513794,685.986145 861.513794,691.527344 
	C865.396484,691.527344 868.833435,691.527344 872.365234,691.527344 
	C872.788696,689.558716 873.156006,687.851074 873.485168,686.320862 
	C877.149231,685.246948 878.372986,686.543396 878.220337,689.931702 
	C878.033203,694.086548 878.176453,698.256226 878.176575,702.419495 
	C878.176758,708.180908 878.176697,713.942383 878.176697,719.564941 
	C875.803101,719.991455 874.228577,720.274414 872.715088,720.546387 
	C872.715088,724.463501 872.715088,728.028809 872.715088,731.590637 
	C880.539124,731.590637 887.957031,731.590637 895.584412,731.590637 
	C895.584412,727.695129 895.584412,724.140869 895.584412,720.450134 
	C893.677490,720.178223 892.088135,719.951599 890.368530,719.706421 
	C890.368530,708.397400 890.368530,697.342468 890.368530,685.907532 
	C892.160461,686.074280 893.565796,686.205017 894.861206,686.325562 
	C895.234009,688.346680 895.526917,689.934570 896.035950,692.693787 
	C900.061401,691.694519 903.810974,690.763733 907.663940,688.956604 
M746.195007,729.180054 
	C746.756592,730.065002 747.299744,731.705872 747.882507,731.720032 
	C755.113831,731.895813 762.350952,731.834900 769.494873,731.834900 
	C769.494873,727.548523 769.494873,724.110168 769.494873,720.494568 
	C767.628662,720.198242 766.045044,719.946716 763.956970,719.615173 
	C763.956970,709.037598 763.853882,698.584778 764.142578,688.142883 
	C764.167053,687.257690 766.810303,686.444885 768.585693,685.391602 
	C769.125732,688.321472 769.417236,689.903015 769.689819,691.381958 
	C773.588196,691.381958 777.143311,691.381958 780.712646,691.381958 
	C780.712646,685.517761 780.712646,680.089050 780.712646,674.484619 
	C765.385681,674.484619 750.361633,674.484619 735.269531,674.484619 
	C735.269531,680.325134 735.269531,685.753418 735.269531,691.495911 
	C739.108032,691.495911 742.664734,691.495911 746.422974,691.495911 
	C746.698364,689.653809 746.935486,688.067505 747.203308,686.276367 
	C748.797791,686.276367 750.180969,686.276367 751.683350,686.276367 
	C751.683350,697.641785 751.683350,708.688660 751.683350,719.665894 
	C749.702271,720.000854 748.116028,720.269043 746.186035,720.595276 
	C746.186035,723.320679 746.186035,725.795593 746.195007,729.180054 
M656.202515,469.899750 
	C633.963684,473.725891 611.724915,477.552032 589.606506,481.357452 
	C588.859375,488.794739 589.605225,489.416199 596.240234,488.262817 
	C627.994141,482.742889 659.763062,477.309845 691.519409,471.803833 
	C698.964172,470.513000 706.380554,469.058563 714.114502,467.622894 
	C713.438843,464.699799 712.929443,462.495972 712.358215,460.024597 
	C693.663635,463.293365 675.355286,466.494568 656.202515,469.899750 
M849.947327,730.174438 
	C849.947327,727.047729 849.947327,723.921021 849.947327,720.686218 
	C848.075500,720.218079 846.535645,719.832947 844.997192,719.448181 
	C844.997192,708.300110 844.997192,697.409119 844.997192,686.533875 
	C846.829407,686.032654 848.346802,685.617493 849.679321,685.252930 
	C849.679321,681.454285 849.679321,678.028137 849.679321,674.465088 
	C841.825500,674.465088 834.302246,674.465088 826.703857,674.465088 
	C826.703857,678.414978 826.703857,681.978516 826.703857,685.538086 
	C828.656921,685.855408 830.249268,686.114136 831.892700,686.381165 
	C831.892700,697.674805 831.892700,708.683594 831.892700,719.667480 
	C829.871826,720.003296 828.293701,720.265564 826.712769,720.528259 
	C826.712769,724.416626 826.712769,727.978394 826.712769,732.307556 
	C834.649536,731.877258 842.180359,731.468933 849.947327,730.174438 
M568.645630,700.503845 
	C568.645630,695.888000 568.645630,691.272217 568.645630,686.576233 
	C570.663391,686.091003 572.202515,685.720947 573.580566,685.389587 
	C573.580566,681.519165 573.580566,677.970825 573.580566,674.431641 
	C565.920471,674.431641 558.690125,674.431641 551.332275,674.431641 
	C551.332275,678.338684 551.332275,681.894897 551.332275,685.464600 
	C553.064453,685.818115 554.476135,686.106262 556.089233,686.435486 
	C556.089233,697.558533 556.089233,708.446899 556.089233,719.487305 
	C554.335083,719.908630 552.795837,720.278320 551.417297,720.609436 
	C551.417297,724.479736 551.417297,728.027954 551.417297,731.569275 
	C559.077393,731.569275 566.307800,731.569275 573.668823,731.569275 
	C573.668823,727.663574 573.668823,724.107849 573.668823,720.533691 
	C571.937988,720.181702 570.526123,719.894592 568.644592,719.511902 
	C568.644592,713.393738 568.644592,707.448181 568.645630,700.503845 
M811.757690,424.084503 
	C818.406738,422.936371 825.055847,421.788239 831.564026,420.664429 
	C832.210693,413.240906 831.959290,412.943329 825.338806,414.009399 
	C818.314514,415.140503 811.275146,416.229462 804.314758,417.683563 
	C800.914673,418.393890 799.405151,417.545685 798.859009,414.093781 
	C797.721375,406.903870 796.308716,399.757843 795.049988,392.586578 
	C793.929016,386.199921 793.376526,385.938507 786.775757,389.285431 
	C788.939697,401.654846 791.126099,414.152710 793.412598,427.223053 
	C799.589844,426.196014 805.256226,425.253906 811.757690,424.084503 
M669.799011,444.392090 
	C676.403381,442.608215 670.537781,439.049591 671.603760,436.028687 
	C649.696167,439.859680 628.494934,443.567169 607.438843,447.249268 
	C606.765259,454.924866 607.156372,455.273132 613.557190,454.163361 
	C632.037903,450.959137 650.528748,447.812897 669.799011,444.392090 
M662.470825,422.090271 
	C647.491394,424.719177 632.512024,427.348114 617.402771,429.999817 
	C617.884827,432.976562 618.248352,435.221222 618.664429,437.790436 
	C639.163269,434.212738 659.328308,430.693329 679.624634,427.151001 
	C679.125488,424.133728 678.755188,421.895172 678.342590,419.400909 
	C673.129150,420.308258 668.232544,421.160492 662.470825,422.090271 
M680.677795,457.994995 
	C683.946106,457.467926 687.231323,457.027374 690.479370,456.396210 
	C697.919189,454.950562 697.951904,454.835327 694.943604,447.481689 
	C679.170959,450.261841 663.354370,453.015533 647.552612,455.851715 
	C641.147095,457.001404 640.654846,458.176575 643.783325,464.524994 
	C655.737427,462.397797 667.777161,460.255371 680.677795,457.994995 
z"/>
<path fill="#F5BC88" opacity="1.000000" stroke="none" 
	d="
M796.336426,488.200623 
	C770.257568,492.809662 744.606445,497.368164 718.918091,501.706512 
	C716.222473,502.161774 715.370056,503.181396 714.189209,505.571014 
	C711.950684,510.101135 708.649597,514.106201 705.838623,518.257446 
	C757.917175,518.257446 811.072205,518.257446 864.411011,518.257446 
	C864.870056,521.955444 866.065613,524.991638 860.643066,524.985046 
	C784.993164,524.893127 709.343140,524.918396 633.693115,524.905518 
	C633.201355,524.905457 632.709595,524.772888 632.233887,524.704529 
	C630.466736,519.096863 630.999084,518.321228 636.781616,518.315735 
	C654.592468,518.298828 672.403320,518.309570 689.483093,518.309570 
	C686.566711,515.805847 683.391602,513.080017 680.216492,510.354156 
	C680.732849,509.699921 681.249268,509.045654 681.765686,508.391418 
	C677.067871,509.077789 672.369995,509.764160 667.068481,510.538757 
	C665.918335,504.337677 664.784058,498.222229 663.510376,491.355133 
	C650.809753,493.486389 638.440857,495.561981 625.727966,497.695282 
	C625.217346,495.370880 624.733276,493.167694 624.047485,490.046173 
	C641.463989,486.981354 658.673584,483.952942 676.242004,480.861389 
	C676.789673,483.471375 677.252441,485.676849 677.706848,487.842316 
	C671.277161,490.745789 671.277161,490.745789 673.626038,500.807404 
	C677.209351,501.447296 679.909241,500.947357 681.121582,496.671906 
	C683.147278,489.528046 688.292236,485.436920 695.449707,484.441559 
	C702.279175,483.491852 707.573914,486.648651 711.981384,491.844116 
	C713.082031,493.141632 715.665588,494.135864 717.330200,493.856293 
	C740.567566,489.953522 763.762024,485.795990 786.970520,481.721069 
	C795.792175,480.172180 804.610779,478.598206 813.455627,477.191956 
	C817.198120,476.596924 819.666016,475.602417 821.252441,471.311371 
	C825.931213,458.656128 841.889404,455.898560 850.252380,466.270081 
	C853.165344,469.882568 855.609924,470.509125 859.864258,468.460907 
	C857.833679,456.759094 855.777161,444.892609 853.709167,433.028076 
	C853.595459,432.375763 853.254700,431.742310 853.243164,431.096039 
	C853.063721,421.055695 849.173340,413.566376 840.585449,407.508667 
	C829.210632,399.485138 818.949768,389.896179 807.961792,381.297394 
	C806.048462,379.800049 802.751648,378.946381 800.358826,379.353363 
	C759.125793,386.366577 717.935181,393.628845 676.732727,400.822418 
	C672.153687,401.621887 667.490540,402.062469 663.000183,403.198303 
	C660.572632,403.812286 658.508118,405.740967 656.131165,406.713013 
	C654.197510,407.503815 652.042603,407.753540 649.507996,408.356995 
	C648.723083,404.693054 648.047302,401.538177 647.270691,397.912903 
	C656.261658,396.290436 664.852295,394.690521 673.461182,393.196014 
	C699.788330,388.625549 726.123291,384.099945 752.453796,379.548401 
	C769.791077,376.551483 787.120605,373.508423 804.472351,370.598358 
	C805.769226,370.380859 807.578247,370.621033 808.541870,371.399872 
	C824.697510,384.456512 840.768005,397.618622 856.803345,410.822998 
	C857.628845,411.502808 858.299866,412.714081 858.486084,413.775543 
	C861.982300,433.711945 865.397339,453.662537 868.805664,473.614258 
	C868.884216,474.074432 868.689087,474.581421 868.587952,475.309296 
	C867.866272,475.522095 867.111267,475.863190 866.326660,475.957550 
	C859.513611,476.776703 854.625244,478.443939 851.193665,486.236084 
	C846.181458,497.617279 830.994141,497.417023 823.001587,486.989136 
	C821.364319,484.853058 820.209961,484.025238 817.374268,484.631714 
	C810.565796,486.087799 803.634888,486.971893 796.336426,488.200623 
M827.224792,480.655121 
	C828.148682,482.010895 828.902405,483.531738 830.027710,484.692230 
	C833.745972,488.526276 838.587891,488.933075 843.096130,485.971344 
	C846.951416,483.438538 848.604370,478.158966 846.928467,473.730988 
	C845.076233,468.837250 840.578735,466.174774 835.539062,466.988647 
	C829.525146,467.959900 826.831055,472.014496 827.224792,480.655121 
M688.790710,507.456421 
	C690.075562,508.488007 691.251282,509.711670 692.665466,510.515778 
	C697.186096,513.086182 702.144897,512.203430 705.229492,508.449097 
	C708.809937,504.091187 708.885498,498.941772 705.430298,494.771729 
	C702.271790,490.959747 697.497375,490.072113 692.862305,492.435181 
	C687.377136,495.231689 686.002930,499.594269 688.790710,507.456421 
z"/>
<path fill="#F0957B" opacity="1.000000" stroke="none" 
	d="
M378.995483,618.000000 
	C378.995483,591.888123 378.995483,566.276245 378.995483,540.107971 
	C390.018005,540.107971 400.470520,540.054138 410.922089,540.130371 
	C416.239990,540.169128 421.625793,539.964233 426.856110,540.726196 
	C433.843842,541.744080 437.829651,546.390442 437.903564,553.409241 
	C438.096619,571.738525 438.080505,590.071716 437.938049,608.401794 
	C437.891571,614.380920 434.248322,617.764771 428.009644,618.862793 
	C431.957825,630.887329 435.776794,642.518311 439.864258,654.966980 
	C432.134827,654.966980 424.909637,655.101440 417.701660,654.809631 
	C416.716614,654.769836 415.379547,652.744324 414.949341,651.400146 
	C411.958862,642.056396 409.206238,632.636719 406.269592,623.275269 
	C405.748260,621.613342 404.723755,620.109253 403.931610,618.532288 
	C403.401794,618.663208 402.872009,618.794189 402.342194,618.925110 
	C402.342194,630.732605 402.342194,642.540161 402.342194,654.669800 
	C394.325043,654.669800 387.071442,654.669800 378.995483,654.669800 
	C378.995483,642.666016 378.995483,630.583008 378.995483,618.000000 
M406.580627,560.117737 
	C405.153564,560.228821 403.726471,560.339905 402.302856,560.450684 
	C402.302856,573.780334 402.302856,586.654175 402.302856,599.997314 
	C404.226440,599.997314 405.847656,599.994019 407.468903,599.997864 
	C415.192230,600.016357 415.194214,600.017029 415.196320,592.535461 
	C415.198669,584.233032 415.198730,575.930542 415.196381,567.628113 
	C415.194275,560.127808 415.192261,560.127808 406.580627,560.117737 
z"/>
<path fill="#F19A81" opacity="1.000000" stroke="none" 
	d="
M753.992065,645.955139 
	C753.992126,610.525940 753.992126,575.591187 753.992126,540.098511 
	C758.859680,540.098511 763.147827,540.097595 767.435913,540.098694 
	C777.932556,540.101440 788.430664,539.997009 798.925354,540.141785 
	C807.737061,540.263428 812.725891,545.004333 812.808838,553.737915 
	C812.987610,572.563293 812.994995,591.393066 812.797424,610.218201 
	C812.703491,619.164612 807.684937,623.878967 798.186279,624.586487 
	C794.704651,624.845825 791.193970,624.731384 787.696289,624.755798 
	C784.381409,624.778992 781.066162,624.760803 777.126343,624.760803 
	C777.126343,634.831787 777.126343,644.561523 777.126343,654.644531 
	C769.270508,654.644531 762.029785,654.644531 753.992065,654.644531 
	C753.992065,651.960876 753.992065,649.205261 753.992065,645.955139 
M790.191772,584.499878 
	C790.191589,580.008728 790.191284,575.517578 790.191284,571.026428 
	C790.191284,558.930664 790.122375,558.869873 777.931946,560.359619 
	C777.795044,560.376343 777.678772,560.562134 777.270081,560.909058 
	C777.270081,575.353088 777.270081,590.036377 777.270081,605.237793 
	C780.396667,605.237793 783.198425,605.065430 785.969788,605.282349 
	C789.284058,605.541626 790.359985,604.178162 790.241333,600.967224 
	C790.051025,595.817810 790.191406,590.656128 790.191772,584.499878 
z"/>
<path fill="#F19B82" opacity="1.000000" stroke="none" 
	d="
M978.460205,654.995239 
	C977.062073,653.486023 975.693237,652.096008 975.263794,650.459473 
	C974.510376,647.587769 974.332520,644.565002 973.865906,641.268127 
	C968.820740,641.268127 963.893188,641.268127 958.474304,641.268127 
	C957.767517,645.602966 957.032898,650.108337 956.274109,654.761719 
	C948.544495,654.761719 941.116577,654.761719 933.093994,654.761719 
	C934.820496,645.009521 936.455383,635.582153 938.162903,626.167847 
	C943.087402,599.015808 948.123169,571.883423 952.883850,544.702759 
	C953.501831,541.174377 954.615295,539.850830 958.237976,540.028015 
	C963.890930,540.304626 969.569336,540.191101 975.232910,540.061584 
	C977.703857,540.005066 978.628540,540.839478 979.076599,543.363403 
	C984.278625,572.662109 989.627747,601.934753 994.930359,631.215637 
	C996.318481,638.880981 997.680542,646.550964 999.195068,655.003357 
	C992.112732,655.003357 985.512573,655.003357 978.460205,654.995239 
M969.928101,609.563965 
	C968.828552,601.091431 967.729004,592.618835 966.629395,584.146301 
	C966.352173,584.117798 966.075012,584.089233 965.797791,584.060730 
	C964.132751,596.715881 962.467651,609.371094 960.747070,622.448120 
	C964.452026,622.448120 967.497009,622.448120 971.263245,622.448120 
	C970.809814,618.223816 970.393250,614.343933 969.928101,609.563965 
z"/>
<path fill="#F1967D" opacity="1.000000" stroke="none" 
	d="
M537.910156,540.611450 
	C545.065186,540.259644 551.894043,540.272461 558.716125,540.064392 
	C561.432312,539.981506 562.486938,541.014465 562.952637,543.669495 
	C566.888062,566.106445 570.937012,588.523682 574.982971,610.941162 
	C577.579224,625.326172 580.228149,639.701599 582.941895,654.565857 
	C575.086243,654.565857 567.566528,654.565857 559.674988,654.565857 
	C559.004517,650.242554 558.325073,645.861267 557.603821,641.210571 
	C552.519287,641.210571 547.603210,641.210571 542.278076,641.210571 
	C541.485596,645.719971 540.695435,650.216064 539.892151,654.787109 
	C532.178406,654.787109 524.900269,654.787109 516.715576,654.787109 
	C523.715454,616.576599 530.648315,578.732117 537.910156,540.611450 
M551.905518,595.570862 
	C551.367676,591.742432 550.829773,587.914062 550.291931,584.085632 
	C550.007568,584.109985 549.723206,584.134399 549.438782,584.158813 
	C547.839600,596.806519 546.240417,609.454285 544.601501,622.416138 
	C548.549316,622.416138 551.597168,622.416138 555.253479,622.416138 
	C554.120056,613.485291 553.040039,604.975525 551.905518,595.570862 
z"/>
<path fill="#F19B83" opacity="1.000000" stroke="none" 
	d="
M1036.782349,651.727051 
	C1035.809326,653.102600 1034.912231,654.829712 1033.956177,654.862976 
	C1027.174438,655.099365 1020.380615,654.988831 1012.982544,654.988831 
	C1014.456787,646.494080 1015.783997,638.541138 1017.223206,630.608582 
	C1022.468140,601.699768 1027.811157,572.808472 1032.926392,543.876770 
	C1033.447998,540.925842 1034.392090,539.951050 1037.313354,540.044922 
	C1043.132446,540.232117 1048.973267,539.904663 1054.778809,540.242432 
	C1056.203613,540.325378 1058.522705,541.967529 1058.752197,543.204163 
	C1065.562744,579.926270 1072.162231,616.687561 1078.777588,653.445801 
	C1078.830566,653.740784 1078.641479,654.079224 1078.429443,654.966736 
	C1071.631348,654.966736 1064.680176,655.097351 1057.746582,654.807739 
	C1056.839355,654.769897 1055.558838,652.681702 1055.255127,651.358582 
	C1054.518677,648.149902 1054.256226,644.832520 1053.759399,641.246948 
	C1048.680542,641.246948 1043.767334,641.246948 1038.314697,641.246948 
	C1037.832520,644.512207 1037.331787,647.903381 1036.782349,651.727051 
M1050.408203,615.033752 
	C1049.113403,604.743347 1047.818481,594.453003 1046.523560,584.162598 
	C1046.192749,584.180420 1045.861816,584.198303 1045.531006,584.216125 
	C1043.931030,596.892456 1042.331055,609.568848 1040.698975,622.499573 
	C1044.646484,622.499573 1047.562988,622.499573 1050.995117,622.499573 
	C1050.869141,620.099304 1050.758911,617.998901 1050.408203,615.033752 
z"/>
<path fill="#F1967D" opacity="1.000000" stroke="none" 
	d="
M479.896851,580.940247 
	C479.896790,583.556213 479.896790,585.679199 479.896790,588.450195 
	C485.114258,588.450195 489.727203,588.596924 494.325623,588.401367 
	C497.685150,588.258423 499.168640,589.264771 498.965881,592.902466 
	C498.688873,597.872131 498.896698,602.868835 498.896698,608.591309 
	C492.598755,608.591309 486.558197,608.591309 480.219940,608.591309 
	C480.219940,617.068665 480.219940,624.811157 480.219940,633.410278 
	C487.990662,633.410278 495.673462,633.410278 503.965607,633.410278 
	C502.517181,641.125854 501.245544,647.899719 499.954254,654.778198 
	C485.256165,654.778198 470.993103,654.778198 456.396484,654.778198 
	C456.396484,616.663818 456.396484,578.777588 456.396484,540.102905 
	C458.523895,540.102905 460.613098,540.102844 462.702301,540.102966 
	C474.194733,540.103455 485.687866,540.173523 497.179016,540.051636 
	C499.787903,540.023987 501.203430,540.772583 501.632538,543.436035 
	C502.578888,549.310120 503.652222,555.163757 504.778625,561.627686 
	C496.481171,561.627686 488.571838,561.627686 479.896942,561.627686 
	C479.896942,568.252686 479.896942,574.350037 479.896851,580.940247 
z"/>
<path fill="#F19A82" opacity="1.000000" stroke="none" 
	d="
M902.999634,540.099426 
	C909.803162,540.099548 916.106873,540.099548 923.339905,540.099548 
	C915.110474,571.349548 907.053040,601.946777 898.793152,633.312561 
	C906.070374,633.312561 912.803040,633.312561 920.184082,633.312561 
	C918.896484,640.402954 917.841248,646.752197 916.483826,653.036255 
	C916.305786,653.860779 914.584778,654.905029 913.570862,654.913147 
	C898.594971,655.033752 883.617798,654.996277 867.581909,654.996277 
	C876.179871,623.776184 884.614319,593.150085 893.252625,561.783569 
	C885.230957,561.783569 877.819641,561.783569 869.517578,561.783569 
	C870.833862,554.556030 871.902588,548.053894 873.342651,541.635071 
	C873.510437,540.887451 875.725769,540.186523 877.002563,540.167053 
	C885.499939,540.037598 894.000366,540.099609 902.999634,540.099426 
z"/>
<path fill="#F1987E" opacity="1.000000" stroke="none" 
	d="
M639.684204,561.748413 
	C634.396729,561.749329 629.565857,561.864441 624.743530,561.711487 
	C621.476990,561.607849 619.923279,562.536865 619.945679,566.193420 
	C620.073669,587.166077 620.063660,608.140320 619.950867,629.113159 
	C619.933228,632.392883 621.071228,633.553162 624.287781,633.479187 
	C630.717102,633.331116 637.152161,633.435242 644.146545,633.435242 
	C642.867737,640.346985 641.897339,646.550720 640.425537,652.633118 
	C640.170471,653.687256 637.811584,654.859924 636.393677,654.900513 
	C628.743103,655.119202 621.081970,655.066589 613.426025,654.978882 
	C601.371704,654.840759 596.506714,650.111572 596.263489,637.949097 
	C596.057190,627.632812 596.200928,617.309448 596.199036,606.989258 
	C596.195923,590.177185 596.178040,573.365051 596.209167,556.553040 
	C596.230347,545.085083 601.204651,540.128784 612.633057,540.105652 
	C620.456482,540.089783 628.282288,540.214417 636.102112,540.046997 
	C639.137512,539.982056 640.619751,540.801941 641.011475,544.055359 
	C641.565796,548.660034 642.504028,553.237488 643.583496,557.753601 
	C644.359619,561.000916 643.254822,562.106079 639.684204,561.748413 
z"/>
<path fill="#F19A81" opacity="1.000000" stroke="none" 
	d="
M695.977051,578.002563 
	C695.976990,603.771240 695.976990,629.040710 695.976990,654.659180 
	C688.011169,654.659180 680.461426,654.659180 672.228333,654.659180 
	C672.228333,652.603577 672.228333,650.663086 672.228333,648.722656 
	C672.228271,621.423706 672.164124,594.124512 672.302246,566.826233 
	C672.321411,563.034912 671.467957,561.275574 667.344238,561.695374 
	C664.120667,562.023499 660.836975,561.761108 656.973083,561.761108 
	C658.919312,554.753113 660.504822,548.503479 662.497314,542.386353 
	C662.840027,541.334473 664.905701,540.213867 666.189941,540.196472 
	C678.339050,540.031738 690.492310,540.029968 702.641174,540.204895 
	C703.883667,540.222839 705.872864,541.461792 706.208801,542.541016 
	C708.073303,548.530457 709.533813,554.645691 711.343201,561.517944 
	C706.056335,561.517944 701.368896,561.517944 695.977112,561.517944 
	C695.977112,567.298218 695.977112,572.400757 695.977051,578.002563 
z"/>
<path fill="#F19980" opacity="1.000000" stroke="none" 
	d="
M852.980225,652.713867 
	C852.318787,653.778625 851.684387,654.876343 851.029724,654.888489 
	C844.245239,655.014771 837.457520,654.966125 830.349976,654.966125 
	C830.349976,616.689636 830.349976,578.830688 830.349976,540.538208 
	C837.646057,540.538208 845.001343,540.538208 852.997864,540.538208 
	C852.997864,577.827881 852.997864,615.035339 852.980225,652.713867 
z"/>
<path fill="#F4B984" opacity="1.000000" stroke="none" 
	d="
M736.197021,411.009155 
	C736.681641,409.807495 736.638306,408.738281 737.052856,407.893951 
	C737.798523,406.375549 738.818848,404.992096 739.724365,403.552246 
	C740.998352,404.445740 742.253723,405.367371 743.551025,406.225616 
	C745.165771,407.293884 746.737610,409.051514 748.461731,409.231689 
	C763.092346,410.760773 774.196655,417.366821 781.193909,430.602234 
	C781.867004,431.875366 784.230042,432.240295 785.788635,433.064575 
	C787.188965,433.805145 788.561768,434.597717 789.946716,435.367371 
	C788.666626,436.547150 787.533386,438.519806 786.084595,438.788116 
	C763.526550,442.965424 740.927063,446.918793 718.338867,450.933502 
	C714.900696,451.544647 711.487000,452.524445 708.030273,452.696594 
	C706.467529,452.774445 704.827026,451.290863 703.221802,450.515625 
	C704.406555,449.379852 705.595459,448.248322 706.775024,447.107117 
	C707.915161,446.004089 709.889221,445.002411 710.052368,443.765564 
	C712.171936,427.702576 720.836609,416.977386 736.197021,411.009155 
z"/>
<path fill="#F4B984" opacity="1.000000" stroke="none" 
	d="
M652.370789,718.453369 
	C655.008362,713.413147 654.641846,712.764709 649.590271,712.665283 
	C647.927307,712.632568 646.263916,712.598999 644.602722,712.523193 
	C644.295959,712.509216 643.998657,712.290466 643.344849,712.021179 
	C643.344849,708.443970 643.344849,704.725525 643.344849,700.798584 
	C644.404968,700.635193 645.362732,700.365417 646.322083,700.359558 
	C652.623718,700.321228 658.925720,700.339783 665.842407,700.339783 
	C665.530640,709.223633 668.024902,717.853943 662.044678,725.568726 
	C653.510681,736.577881 627.056274,734.042786 621.351868,721.505005 
	C620.613953,719.882996 620.087524,718.010254 620.061890,716.244873 
	C619.933350,707.417908 619.824707,698.583313 620.057739,689.760620 
	C620.273804,681.580566 627.943298,674.461243 636.616211,674.113831 
	C640.774048,673.947266 644.948486,673.968628 649.107971,674.115906 
	C659.768982,674.493164 666.937988,683.205200 665.486938,694.663147 
	C663.130981,694.663147 660.679016,694.584778 658.234192,694.684692 
	C655.661560,694.789734 654.237671,694.011841 654.009521,691.117126 
	C653.730591,687.577820 651.387329,685.944458 647.898621,685.930969 
	C644.567017,685.918091 641.233826,685.861511 637.903992,685.939026 
	C633.850403,686.033264 631.835876,688.243896 631.821106,692.249268 
	C631.794617,699.412292 631.791870,706.575623 631.831116,713.738525 
	C631.852966,717.731873 633.859924,720.153931 637.918640,720.003723 
	C642.642456,719.828857 647.349060,719.190002 652.370789,718.453369 
z"/>
<path fill="#F4B984" opacity="1.000000" stroke="none" 
	d="
M685.227295,728.932251 
	C679.489563,725.003052 677.453857,719.561707 677.358887,713.265442 
	C677.255920,706.438721 677.250061,699.607849 677.354614,692.781128 
	C677.530884,681.274109 684.756042,673.977173 696.183289,674.151794 
	C702.703735,674.251404 709.473450,672.683899 715.565186,676.849487 
	C720.763428,680.404114 723.803101,684.990356 723.860779,691.326721 
	C723.931946,699.153015 724.033325,706.984619 723.831177,714.806458 
	C723.585938,724.298157 716.003967,731.839722 706.495361,731.844727 
	C699.436951,731.848450 692.101196,733.284851 685.227295,728.932251 
M689.371765,715.611389 
	C691.018433,717.071411 692.519287,719.523987 694.341187,719.791504 
	C698.565674,720.412048 703.082397,720.601074 707.201904,719.695984 
	C709.154236,719.267029 711.680298,716.025513 711.849609,713.891785 
	C712.426086,706.627747 712.168335,699.287781 712.029297,691.980591 
	C711.954590,688.050537 709.812500,685.885193 705.717896,685.921631 
	C702.893860,685.946716 700.069397,685.906250 697.245178,685.922424 
	C691.000122,685.958130 689.258423,687.531921 689.142090,693.832947 
	C689.013306,700.807190 689.150269,707.786316 689.371765,715.611389 
z"/>
<path fill="#F5BC88" opacity="1.000000" stroke="none" 
	d="
M907.612244,689.394775 
	C903.810974,690.763733 900.061401,691.694519 896.035950,692.693787 
	C895.526917,689.934570 895.234009,688.346680 894.861206,686.325562 
	C893.565796,686.205017 892.160461,686.074280 890.368530,685.907532 
	C890.368530,697.342468 890.368530,708.397400 890.368530,719.706421 
	C892.088135,719.951599 893.677490,720.178223 895.584412,720.450134 
	C895.584412,724.140869 895.584412,727.695129 895.584412,731.590637 
	C887.957031,731.590637 880.539124,731.590637 872.715088,731.590637 
	C872.715088,728.028809 872.715088,724.463501 872.715088,720.546387 
	C874.228577,720.274414 875.803101,719.991455 878.176697,719.564941 
	C878.176697,713.942383 878.176758,708.180908 878.176575,702.419495 
	C878.176453,698.256226 878.033203,694.086548 878.220337,689.931702 
	C878.372986,686.543396 877.149231,685.246948 873.485168,686.320862 
	C873.156006,687.851074 872.788696,689.558716 872.365234,691.527344 
	C868.833435,691.527344 865.396484,691.527344 861.513794,691.527344 
	C861.513794,685.986145 861.513794,680.444946 861.513794,674.483398 
	C876.674805,674.483398 891.864868,674.483398 907.663940,674.483398 
	C907.663940,679.395142 907.663940,684.175842 907.612244,689.394775 
z"/>
<path fill="#F5BA86" opacity="1.000000" stroke="none" 
	d="
M746.190552,728.725281 
	C746.186035,725.795593 746.186035,723.320679 746.186035,720.595276 
	C748.116028,720.269043 749.702271,720.000854 751.683350,719.665894 
	C751.683350,708.688660 751.683350,697.641785 751.683350,686.276367 
	C750.180969,686.276367 748.797791,686.276367 747.203308,686.276367 
	C746.935486,688.067505 746.698364,689.653809 746.422974,691.495911 
	C742.664734,691.495911 739.108032,691.495911 735.269531,691.495911 
	C735.269531,685.753418 735.269531,680.325134 735.269531,674.484619 
	C750.361633,674.484619 765.385681,674.484619 780.712646,674.484619 
	C780.712646,680.089050 780.712646,685.517761 780.712646,691.381958 
	C777.143311,691.381958 773.588196,691.381958 769.689819,691.381958 
	C769.417236,689.903015 769.125732,688.321472 768.585693,685.391602 
	C766.810303,686.444885 764.167053,687.257690 764.142578,688.142883 
	C763.853882,698.584778 763.956970,709.037598 763.956970,719.615173 
	C766.045044,719.946716 767.628662,720.198242 769.494873,720.494568 
	C769.494873,724.110168 769.494873,727.548523 769.494873,731.834900 
	C762.350952,731.834900 755.113831,731.895813 747.882507,731.720032 
	C747.299744,731.705872 746.756592,730.065002 746.190552,728.725281 
z"/>
<path fill="#F5BA86" opacity="1.000000" stroke="none" 
	d="
M656.624756,469.797791 
	C675.355286,466.494568 693.663635,463.293365 712.358215,460.024597 
	C712.929443,462.495972 713.438843,464.699799 714.114502,467.622894 
	C706.380554,469.058563 698.964172,470.513000 691.519409,471.803833 
	C659.763062,477.309845 627.994141,482.742889 596.240234,488.262817 
	C589.605225,489.416199 588.859375,488.794739 589.606506,481.357452 
	C611.724915,477.552032 633.963684,473.725891 656.624756,469.797791 
z"/>
<path fill="#F4B984" opacity="1.000000" stroke="none" 
	d="
M849.829285,730.617554 
	C842.180359,731.468933 834.649536,731.877258 826.712769,732.307556 
	C826.712769,727.978394 826.712769,724.416626 826.712769,720.528259 
	C828.293701,720.265564 829.871826,720.003296 831.892700,719.667480 
	C831.892700,708.683594 831.892700,697.674805 831.892700,686.381165 
	C830.249268,686.114136 828.656921,685.855408 826.703857,685.538086 
	C826.703857,681.978516 826.703857,678.414978 826.703857,674.465088 
	C834.302246,674.465088 841.825500,674.465088 849.679321,674.465088 
	C849.679321,678.028137 849.679321,681.454285 849.679321,685.252930 
	C848.346802,685.617493 846.829407,686.032654 844.997192,686.533875 
	C844.997192,697.409119 844.997192,708.300110 844.997192,719.448181 
	C846.535645,719.832947 848.075500,720.218079 849.947327,720.686218 
	C849.947327,723.921021 849.947327,727.047729 849.829285,730.617554 
z"/>
<path fill="#F4B781" opacity="1.000000" stroke="none" 
	d="
M568.645142,701.003235 
	C568.644592,707.448181 568.644592,713.393738 568.644592,719.511902 
	C570.526123,719.894592 571.937988,720.181702 573.668823,720.533691 
	C573.668823,724.107849 573.668823,727.663574 573.668823,731.569275 
	C566.307800,731.569275 559.077393,731.569275 551.417297,731.569275 
	C551.417297,728.027954 551.417297,724.479736 551.417297,720.609436 
	C552.795837,720.278320 554.335083,719.908630 556.089233,719.487305 
	C556.089233,708.446899 556.089233,697.558533 556.089233,686.435486 
	C554.476135,686.106262 553.064453,685.818115 551.332275,685.464600 
	C551.332275,681.894897 551.332275,678.338684 551.332275,674.431641 
	C558.690125,674.431641 565.920471,674.431641 573.580566,674.431641 
	C573.580566,677.970825 573.580566,681.519165 573.580566,685.389587 
	C572.202515,685.720947 570.663391,686.091003 568.645630,686.576233 
	C568.645630,691.272217 568.645630,695.888000 568.645142,701.003235 
z"/>
<path fill="#F5BC88" opacity="1.000000" stroke="none" 
	d="
M811.340210,424.198151 
	C805.256226,425.253906 799.589844,426.196014 793.412598,427.223053 
	C791.126099,414.152710 788.939697,401.654846 786.775757,389.285431 
	C793.376526,385.938507 793.929016,386.199921 795.049988,392.586578 
	C796.308716,399.757843 797.721375,406.903870 798.859009,414.093781 
	C799.405151,417.545685 800.914673,418.393890 804.314758,417.683563 
	C811.275146,416.229462 818.314514,415.140503 825.338806,414.009399 
	C831.959290,412.943329 832.210693,413.240906 831.564026,420.664429 
	C825.055847,421.788239 818.406738,422.936371 811.340210,424.198151 
z"/>
<path fill="#F5BA86" opacity="1.000000" stroke="none" 
	d="
M669.407288,444.518005 
	C650.528748,447.812897 632.037903,450.959137 613.557190,454.163361 
	C607.156372,455.273132 606.765259,454.924866 607.438843,447.249268 
	C628.494934,443.567169 649.696167,439.859680 671.603760,436.028687 
	C670.537781,439.049591 676.403381,442.608215 669.407288,444.518005 
z"/>
<path fill="#F5BA86" opacity="1.000000" stroke="none" 
	d="
M662.903381,422.051483 
	C668.232544,421.160492 673.129150,420.308258 678.342590,419.400909 
	C678.755188,421.895172 679.125488,424.133728 679.624634,427.151001 
	C659.328308,430.693329 639.163269,434.212738 618.664429,437.790436 
	C618.248352,435.221222 617.884827,432.976562 617.402771,429.999817 
	C632.512024,427.348114 647.491394,424.719177 662.903381,422.051483 
z"/>
<path fill="#F5BA86" opacity="1.000000" stroke="none" 
	d="
M680.247314,458.053955 
	C667.777161,460.255371 655.737427,462.397797 643.783325,464.524994 
	C640.654846,458.176575 641.147095,457.001404 647.552612,455.851715 
	C663.354370,453.015533 679.170959,450.261841 694.943604,447.481689 
	C697.951904,454.835327 697.919189,454.950562 690.479370,456.396210 
	C687.231323,457.027374 683.946106,457.467926 680.247314,458.053955 
z"/>
<path fill="#FFFFFF" opacity="1.000000" stroke="none" 
	d="
M827.102539,480.262390 
	C826.831055,472.014496 829.525146,467.959900 835.539062,466.988647 
	C840.578735,466.174774 845.076233,468.837250 846.928467,473.730988 
	C848.604370,478.158966 846.951416,483.438538 843.096130,485.971344 
	C838.587891,488.933075 833.745972,488.526276 830.027710,484.692230 
	C828.902405,483.531738 828.148682,482.010895 827.102539,480.262390 
z"/>
<path fill="#FFFFFF" opacity="1.000000" stroke="none" 
	d="
M688.559753,507.141846 
	C686.002930,499.594269 687.377136,495.231689 692.862305,492.435181 
	C697.497375,490.072113 702.271790,490.959747 705.430298,494.771729 
	C708.885498,498.941772 708.809937,504.091187 705.229492,508.449097 
	C702.144897,512.203430 697.186096,513.086182 692.665466,510.515778 
	C691.251282,509.711670 690.075562,508.488007 688.559753,507.141846 
z"/>
<path fill="#FFFFFF" opacity="1.000000" stroke="none" 
	d="
M407.045410,560.117798 
	C415.192261,560.127808 415.194275,560.127808 415.196381,567.628113 
	C415.198730,575.930542 415.198669,584.233032 415.196320,592.535461 
	C415.194214,600.017029 415.192230,600.016357 407.468903,599.997864 
	C405.847656,599.994019 404.226440,599.997314 402.302856,599.997314 
	C402.302856,586.654175 402.302856,573.780334 402.302856,560.450684 
	C403.726471,560.339905 405.153564,560.228821 407.045410,560.117798 
z"/>
<path fill="#FFFFFF" opacity="1.000000" stroke="none" 
	d="
M790.191895,584.999756 
	C790.191406,590.656128 790.051025,595.817810 790.241333,600.967224 
	C790.359985,604.178162 789.284058,605.541626 785.969788,605.282349 
	C783.198425,605.065430 780.396667,605.237793 777.270081,605.237793 
	C777.270081,590.036377 777.270081,575.353088 777.270081,560.909058 
	C777.678772,560.562134 777.795044,560.376343 777.931946,560.359619 
	C790.122375,558.869873 790.191284,558.930664 790.191284,571.026428 
	C790.191284,575.517578 790.191589,580.008728 790.191895,584.999756 
z"/>
<path fill="#FEF8F7" opacity="1.000000" stroke="none" 
	d="
M969.952393,610.014038 
	C970.393250,614.343933 970.809814,618.223816 971.263245,622.448120 
	C967.497009,622.448120 964.452026,622.448120 960.747070,622.448120 
	C962.467651,609.371094 964.132751,596.715881 965.797791,584.060730 
	C966.075012,584.089233 966.352173,584.117798 966.629395,584.146301 
	C967.729004,592.618835 968.828552,601.091431 969.952393,610.014038 
z"/>
<path fill="#FEF8F7" opacity="1.000000" stroke="none" 
	d="
M551.932739,596.018311 
	C553.040039,604.975525 554.120056,613.485291 555.253479,622.416138 
	C551.597168,622.416138 548.549316,622.416138 544.601501,622.416138 
	C546.240417,609.454285 547.839600,596.806519 549.438782,584.158813 
	C549.723206,584.134399 550.007568,584.109985 550.291931,584.085632 
	C550.829773,587.914062 551.367676,591.742432 551.932739,596.018311 
z"/>
<path fill="#FEF8F7" opacity="1.000000" stroke="none" 
	d="
M1050.528442,615.466064 
	C1050.758911,617.998901 1050.869141,620.099304 1050.995117,622.499573 
	C1047.562988,622.499573 1044.646484,622.499573 1040.698975,622.499573 
	C1042.331055,609.568848 1043.931030,596.892456 1045.531006,584.216125 
	C1045.861816,584.198303 1046.192749,584.180420 1046.523560,584.162598 
	C1047.818481,594.453003 1049.113403,604.743347 1050.528442,615.466064 
z"/>
<path fill="#FFFFFF" opacity="1.000000" stroke="none" 
	d="
M689.271606,715.187378 
	C689.150269,707.786316 689.013306,700.807190 689.142090,693.832947 
	C689.258423,687.531921 691.000122,685.958130 697.245178,685.922424 
	C700.069397,685.906250 702.893860,685.946716 705.717896,685.921631 
	C709.812500,685.885193 711.954590,688.050537 712.029297,691.980591 
	C712.168335,699.287781 712.426086,706.627747 711.849609,713.891785 
	C711.680298,716.025513 709.154236,719.267029 707.201904,719.695984 
	C703.082397,720.601074 698.565674,720.412048 694.341187,719.791504 
	C692.519287,719.523987 691.018433,717.071411 689.271606,715.187378 
z"/>
</svg>